<?xml version="1.0" encoding="utf-8"?>

<!DOCTYPE svg PUBLIC "-//W3C//DTD SVG 1.1//EN" "http://www.w3.org/Graphics/SVG/1.1/DTD/svg11.dtd">
<svg version="1.1" id="Layer_1" xmlns="http://www.w3.org/2000/svg" xmlns:xlink="http://www.w3.org/1999/xlink" x="0px" y="0px"
	 viewBox="0 0 2280.067 1646.086" enable-background="new 0 0 2280.067 1646.086" xml:space="preserve">
<g>
	<path d="M2129.067,830.128c42.644-59.107,67.786-131.679,67.786-210.131c0-259.61-266.858-432.555-502.906-329.817
		c-75.747-54.693-169.528-76.742-261.851-61.949c-21.234-116.703-123.389-205.189-246.219-205.189
		c-122.181,0-223.895,87.557-245.866,203.344c-229.544-191.489-581.348-2.784-541.762,298.727
		C200.735,506.486,31.918,661.707,31.918,858.132c0,171.537,129.116,312.894,295.46,332.247
		c-53.444,345.443,370.186,547.453,606.966,299.698c138.459,114.259,346.778,91.73,456.524-55.185
		c87.232,114.345,224.895,188.151,379.818,188.151C2183.791,1623.043,2397.584,1134.949,2129.067,830.128z"/>
	<g>
		<radialGradient id="SVGID_1_" cx="435.3757" cy="1376.4965" r="77.6271" gradientUnits="userSpaceOnUse">
			<stop  offset="0" style="stop-color:#FFFFFF"/>
			<stop  offset="0.049" style="stop-color:#F6F0F6"/>
			<stop  offset="0.199" style="stop-color:#DEC6DD"/>
			<stop  offset="0.3524" style="stop-color:#CAA4C8"/>
			<stop  offset="0.5077" style="stop-color:#BA89B8"/>
			<stop  offset="0.6655" style="stop-color:#AF76AD"/>
			<stop  offset="0.8275" style="stop-color:#A86BA6"/>
			<stop  offset="1" style="stop-color:#A667A4"/>
		</radialGradient>
		<polygon fill="url(#SVGID_1_)" points="457.601,1450.867 466.668,1447.508 464.017,1430.428 471.664,1425.589 485.964,1435.299 
			492.882,1428.543 483.513,1414.018 488.531,1406.487 505.544,1409.541 509.116,1400.556 494.649,1391.096 496.17,1382.176 
			512.955,1378.046 512.563,1368.385 495.499,1365.628 493.26,1356.86 506.914,1346.26 502.626,1337.593 485.917,1342.015 
			480.305,1334.916 488.467,1319.679 481.025,1313.505 467.558,1324.341 459.545,1320.138 460.804,1302.899 451.494,1300.286 
			443.599,1315.662 434.568,1315.082 428.707,1298.821 419.139,1300.221 418.181,1317.479 409.695,1320.622 397.726,1308.151 
			389.555,1313.321 395.699,1329.478 389.225,1335.8 373.219,1329.276 367.857,1337.322 380.041,1349.583 376.699,1357.992 
			359.422,1358.542 357.797,1368.073 373.914,1374.318 374.281,1383.36 358.722,1390.889 361.114,1400.258 378.378,1399.407 
			382.391,1407.518 371.239,1420.725 377.235,1428.311 392.661,1420.511 399.625,1426.289 394.809,1442.89 403.373,1447.381 
			414.292,1433.982 423.005,1436.427 425.357,1453.551 435.007,1454.172 439.533,1437.49 448.486,1436.18 		"/>
		<radialGradient id="SVGID_2_" cx="435.388" cy="1376.4604" r="34.2388" gradientUnits="userSpaceOnUse">
			<stop  offset="0" style="stop-color:#FFFFFF"/>
			<stop  offset="0.0546" style="stop-color:#FDE8E8"/>
			<stop  offset="0.1819" style="stop-color:#F8B6B7"/>
			<stop  offset="0.3125" style="stop-color:#F48C8D"/>
			<stop  offset="0.4442" style="stop-color:#F16A6B"/>
			<stop  offset="0.5775" style="stop-color:#EE4F50"/>
			<stop  offset="0.713" style="stop-color:#EC3C3D"/>
			<stop  offset="0.852" style="stop-color:#EB3132"/>
			<stop  offset="1" style="stop-color:#EB2D2E"/>
		</radialGradient>
		<circle fill="url(#SVGID_2_)" cx="435.388" cy="1376.46" r="34.23"/>
		<radialGradient id="SVGID_3_" cx="1492.4059" cy="767.7848" r="80.3482" gradientUnits="userSpaceOnUse">
			<stop  offset="0" style="stop-color:#FFFFFF"/>
			<stop  offset="0.1102" style="stop-color:#CBE2F0"/>
			<stop  offset="0.239" style="stop-color:#96C5E1"/>
			<stop  offset="0.3696" style="stop-color:#68ABD3"/>
			<stop  offset="0.4992" style="stop-color:#4396C8"/>
			<stop  offset="0.6276" style="stop-color:#2586C0"/>
			<stop  offset="0.7546" style="stop-color:#117ABA"/>
			<stop  offset="0.8795" style="stop-color:#0473B6"/>
			<stop  offset="1" style="stop-color:#0071B5"/>
		</radialGradient>
		<polygon fill="url(#SVGID_3_)" points="1572.541,772.647 1572.523,762.626 1554.964,759.086 1552.998,749.917 1567.562,739.489 
			1563.47,730.342 1545.989,734.249 1540.464,726.672 1549.528,711.222 1542.069,704.531 1527.689,715.211 1519.559,710.536 
			1521.555,692.735 1512.02,689.655 1503.226,705.261 1493.898,704.297 1488.482,687.224 1478.518,688.289 1476.832,706.122 
			1467.919,709.035 1456.026,695.641 1447.357,700.666 1453.07,717.643 1446.112,723.93 1429.799,716.531 1423.924,724.648 
			1436.048,737.834 1432.249,746.407 1414.337,746.283 1412.271,756.088 1428.711,763.202 1428.727,772.579 1412.313,779.751 
			1414.414,789.549 1432.325,789.361 1436.155,797.922 1424.077,811.15 1429.981,819.246 1446.268,811.789 1453.248,818.052 
			1447.594,835.049 1456.281,840.044 1468.127,826.607 1477.05,829.489 1478.799,847.316 1488.766,848.346 1494.123,831.253 
			1503.447,830.256 1512.296,845.831 1521.82,842.718 1519.761,824.924 1527.874,820.221 1542.292,830.85 1549.727,824.131 
			1540.609,808.713 1546.107,801.117 1563.602,804.963 1567.662,795.802 1553.061,785.425 1554.994,776.249 		"/>
		<radialGradient id="SVGID_4_" cx="1492.2294" cy="767.5955" r="35.4736" gradientUnits="userSpaceOnUse">
			<stop  offset="0.0056" style="stop-color:#E6F3E9"/>
			<stop  offset="0.4494" style="stop-color:#C9E6D2"/>
			<stop  offset="1" style="stop-color:#ACDABB"/>
		</radialGradient>
		<circle fill="url(#SVGID_4_)" cx="1492.229" cy="767.595" r="35.473"/>
		<radialGradient id="SVGID_5_" cx="1119.5447" cy="1156.4153" r="199.691" gradientUnits="userSpaceOnUse">
			<stop  offset="0" style="stop-color:#E1E4EF"/>
			<stop  offset="0.5" style="stop-color:#CBD1E4"/>
			<stop  offset="1" style="stop-color:#B4BED8"/>
		</radialGradient>
		<polygon fill="url(#SVGID_5_)" points="1172.353,962.271 1147.971,957.219 1130.431,998.129 1107.129,998.249 1089.17,957.521 
			1064.841,962.823 1065.458,1007.33 1044.219,1016.918 1011.247,987.016 991.178,1001.755 1009.844,1042.163 994.341,1059.56 
			952.057,1045.654 939.718,1067.282 973.206,1096.605 966.119,1118.803 921.835,1123.297 919.36,1148.074 961.879,1161.241 
			964.434,1184.403 925.806,1206.521 933.622,1230.162 977.821,1224.897 989.576,1245.018 963.284,1280.934 980.04,1299.353 
			1018.276,1276.565 1037.198,1290.165 1027.788,1333.67 1050.587,1343.681 1076.249,1307.312 1099.067,1312.04 1108.166,1355.611 
			1133.065,1355.483 1141.716,1311.821 1164.484,1306.859 1190.518,1342.962 1213.213,1332.718 1203.357,1289.312 
			1222.138,1275.518 1260.606,1297.912 1277.172,1279.322 1250.513,1243.678 1262.06,1223.437 1306.311,1228.248 1313.884,1204.528 
			1275.031,1182.808 1277.348,1159.621 1319.73,1146.018 1317,1121.268 1272.672,1117.229 1265.358,1095.104 1298.542,1065.439 
			1285.982,1043.939 1243.844,1058.279 1228.162,1041.042 1246.412,1000.444 1226.193,985.912 1193.53,1016.151 1172.194,1006.782 
					"/>
		<radialGradient id="SVGID_6_" cx="1119.2322" cy="1155.0471" r="88.1591" gradientUnits="userSpaceOnUse">
			<stop  offset="0" style="stop-color:#FFFBCC"/>
			<stop  offset="0.1146" style="stop-color:#FBF2BB"/>
			<stop  offset="0.3413" style="stop-color:#F0D98E"/>
			<stop  offset="0.3708" style="stop-color:#EED688"/>
			<stop  offset="0.6854" style="stop-color:#EBBB10"/>
			<stop  offset="1" style="stop-color:#C3922E"/>
		</radialGradient>
		<circle fill="url(#SVGID_6_)" cx="1119.232" cy="1155.047" r="88.147"/>
		<radialGradient id="SVGID_7_" cx="228.1526" cy="753.9862" r="143.3869" gradientUnits="userSpaceOnUse">
			<stop  offset="0" style="stop-color:#FFFFFF"/>
			<stop  offset="0.1104" style="stop-color:#D9DEEC"/>
			<stop  offset="0.2506" style="stop-color:#AFB9D8"/>
			<stop  offset="0.3942" style="stop-color:#8D9BC7"/>
			<stop  offset="0.5395" style="stop-color:#7284BA"/>
			<stop  offset="0.6871" style="stop-color:#5F73B0"/>
			<stop  offset="0.8386" style="stop-color:#5469AB"/>
			<stop  offset="1" style="stop-color:#5066A9"/>
		</radialGradient>
		<polygon fill="url(#SVGID_7_)" points="89.759,713.165 85.748,730.579 114.823,743.813 114.54,760.535 85.032,772.774 
			88.45,790.315 120.395,790.578 126.937,805.97 104.959,829.153 115.216,843.787 144.506,831.035 156.743,842.435 146.094,872.553 
			161.417,881.75 182.987,858.187 198.803,863.624 201.325,895.47 219.064,897.639 229.186,867.34 245.846,865.874 261.103,893.94 
			278.19,888.707 275.113,856.91 289.736,848.795 315.09,868.23 328.571,856.499 312.828,828.703 322.886,815.341 353.952,822.783 
			361.497,806.583 335.808,787.594 339.563,771.296 370.97,765.459 371.273,747.591 340.082,740.691 336.883,724.276 
			363.201,706.169 356.21,689.722 324.909,696.106 315.31,682.411 331.987,655.165 318.912,642.984 292.913,661.547 278.574,652.94 
			282.728,621.266 265.828,615.456 249.627,642.989 233.027,640.959 223.939,610.333 206.137,611.9 202.536,643.641 
			186.545,648.539 165.786,624.258 150.16,632.929 159.78,663.391 147.164,674.37 118.324,660.631 107.576,674.909 128.755,698.824 
			121.694,713.985 		"/>
		<radialGradient id="SVGID_8_" cx="227.2372" cy="754.3373" r="63.273" gradientUnits="userSpaceOnUse">
			<stop  offset="0" style="stop-color:#FFFFFF"/>
			<stop  offset="0.1175" style="stop-color:#D6ECEF"/>
			<stop  offset="0.2566" style="stop-color:#ACD9E0"/>
			<stop  offset="0.399" style="stop-color:#8AC9D3"/>
			<stop  offset="0.5431" style="stop-color:#6FBDC9"/>
			<stop  offset="0.6896" style="stop-color:#5CB4C2"/>
			<stop  offset="0.8399" style="stop-color:#51AFBD"/>
			<stop  offset="1" style="stop-color:#4DADBC"/>
		</radialGradient>
		<circle fill="url(#SVGID_8_)" cx="227.237" cy="754.337" r="63.262"/>
		<radialGradient id="SVGID_9_" cx="1568.6693" cy="376.8525" r="111.9018" gradientUnits="userSpaceOnUse">
			<stop  offset="0" style="stop-color:#FFF2DB"/>
			<stop  offset="0.309" style="stop-color:#D7B189"/>
			<stop  offset="0.7508" style="stop-color:#92562D"/>
			<stop  offset="0.7809" style="stop-color:#8D5027"/>
			<stop  offset="1" style="stop-color:#541513"/>
		</radialGradient>
		<polygon fill="url(#SVGID_9_)" points="1632.215,469.477 1643.172,460.86 1631.983,438.595 1640.336,428.576 1664.25,435.576 
			1670.755,423.247 1651.477,407.459 1655.033,394.908 1679.727,391.576 1680.655,377.668 1656.622,371.085 1654.765,358.173 
			1675.969,345.086 1671.16,332.002 1646.528,335.764 1639.58,324.723 1653.627,304.143 1643.912,294.147 1622.939,307.602 
			1612.101,300.342 1616.563,275.827 1603.623,270.647 1589.936,291.469 1577.082,289.245 1571.187,265.034 1557.258,265.565 
			1553.224,290.154 1540.576,293.351 1525.344,273.631 1512.835,279.782 1519.151,303.886 1508.897,311.95 1486.961,300.13 
			1478.035,310.837 1493.609,330.288 1487.521,341.826 1462.674,339.951 1458.875,353.362 1481.014,364.797 1480.146,377.814 
			1456.684,386.207 1458.668,400.004 1483.544,401.446 1488.045,413.69 1470.026,430.9 1477.45,442.697 1500.762,433.897 
			1509.853,443.251 1500.392,466.303 1511.973,474.061 1529.69,456.539 1541.8,461.387 1542.533,486.294 1556.268,488.671 
			1565.326,465.458 1578.362,464.961 1589.161,487.417 1602.676,484.001 1601.509,459.111 1613.216,453.355 		"/>
		<radialGradient id="SVGID_10_" cx="1568.8391" cy="377.2054" r="49.3459" gradientUnits="userSpaceOnUse">
			<stop  offset="0" style="stop-color:#FFFFFF"/>
			<stop  offset="0.049" style="stop-color:#F6F0F6"/>
			<stop  offset="0.199" style="stop-color:#DEC6DD"/>
			<stop  offset="0.3524" style="stop-color:#CAA4C8"/>
			<stop  offset="0.5077" style="stop-color:#BA89B8"/>
			<stop  offset="0.6655" style="stop-color:#AF76AD"/>
			<stop  offset="0.8275" style="stop-color:#A86BA6"/>
			<stop  offset="1" style="stop-color:#A667A4"/>
		</radialGradient>
		<circle fill="url(#SVGID_10_)" cx="1568.839" cy="377.205" r="49.345"/>
		<radialGradient id="SVGID_11_" cx="710.863" cy="1361.6365" r="211.806" gradientUnits="userSpaceOnUse">
			<stop  offset="0" style="stop-color:#FFFFFF"/>
			<stop  offset="0.0483" style="stop-color:#FDF4EA"/>
			<stop  offset="0.1764" style="stop-color:#F9D9B9"/>
			<stop  offset="0.3078" style="stop-color:#F6C18F"/>
			<stop  offset="0.4404" style="stop-color:#F3AE6D"/>
			<stop  offset="0.5746" style="stop-color:#F1A052"/>
			<stop  offset="0.711" style="stop-color:#EF953F"/>
			<stop  offset="0.851" style="stop-color:#EE8F34"/>
			<stop  offset="1" style="stop-color:#EE8D30"/>
		</radialGradient>
		<polygon fill="url(#SVGID_11_)" points="505.406,1414.884 513.708,1439.955 560.584,1434.348 573.062,1455.683 545.194,1493.791 
			562.976,1513.318 603.519,1489.129 623.596,1503.544 613.637,1549.692 637.824,1560.299 665.024,1521.711 689.228,1526.714 
			698.9,1572.923 725.31,1572.774 734.463,1526.459 758.609,1521.185 786.24,1559.465 810.307,1548.588 799.83,1502.554 
			819.744,1487.915 860.556,1511.646 878.117,1491.921 849.823,1454.128 862.061,1432.655 908.997,1437.735 917.017,1412.572 
			875.797,1389.555 878.243,1364.961 923.188,1350.511 920.279,1324.261 873.262,1320 865.492,1296.537 900.674,1265.056 
			887.341,1242.259 842.655,1257.489 826.014,1239.215 845.349,1196.146 823.896,1180.743 789.268,1212.832 766.633,1202.906 
			766.779,1155.696 740.916,1150.35 722.334,1193.75 697.618,1193.889 678.55,1150.701 652.748,1156.337 653.425,1203.542 
			630.903,1213.722 595.916,1182.023 574.638,1197.667 594.456,1240.516 578.021,1258.976 533.167,1244.248 520.09,1267.194 
			555.624,1298.278 548.118,1321.826 501.151,1326.616 498.538,1352.896 543.643,1366.84 546.364,1391.406 		"/>
		<radialGradient id="SVGID_12_" cx="710.6245" cy="1361.3458" r="93.5174" gradientUnits="userSpaceOnUse">
			<stop  offset="0.0056" style="stop-color:#E2E5F4"/>
			<stop  offset="0.4494" style="stop-color:#C7CEE9"/>
			<stop  offset="1" style="stop-color:#A8B5DC"/>
		</radialGradient>
		<circle fill="url(#SVGID_12_)" cx="710.625" cy="1361.346" r="93.492"/>
		<radialGradient id="SVGID_13_" cx="912.0673" cy="773.9552" r="209.9717" gradientUnits="userSpaceOnUse">
			<stop  offset="0" style="stop-color:#FFFFFF"/>
			<stop  offset="0.1144" style="stop-color:#FAC8E4"/>
			<stop  offset="0.2335" style="stop-color:#F697CC"/>
			<stop  offset="0.3558" style="stop-color:#F26DB7"/>
			<stop  offset="0.4793" style="stop-color:#EF4BA6"/>
			<stop  offset="0.6042" style="stop-color:#ED3099"/>
			<stop  offset="0.7311" style="stop-color:#EB1D8F"/>
			<stop  offset="0.8614" style="stop-color:#EA128A"/>
			<stop  offset="1" style="stop-color:#EA0E88"/>
		</radialGradient>
		<polygon fill="url(#SVGID_13_)" points="965.535,569.43 939.855,564.389 921.871,607.576 897.383,607.958 878.061,565.353 
			852.55,571.192 853.688,617.961 831.472,628.27 796.491,597.207 775.561,612.918 795.622,655.18 779.52,673.634 734.929,659.484 
			722.199,682.35 757.716,712.799 750.512,736.207 704.021,741.417 701.691,767.484 746.522,780.855 749.462,805.169 
			709.109,828.839 717.584,853.599 763.977,847.579 776.552,868.596 749.315,906.632 767.128,925.805 807.062,901.436 
			827.098,915.521 817.687,961.347 841.758,971.617 868.328,933.112 892.36,937.83 902.402,983.522 928.569,983.114 937.18,937.131 
			961.054,931.666 988.812,969.323 1012.551,958.307 1001.715,912.797 1021.302,898.094 1061.977,921.206 1079.183,901.486 
			1050.773,864.318 1062.686,842.92 1109.245,847.489 1116.943,822.477 1075.872,800.077 1078.051,775.683 1122.443,760.921 
			1119.302,734.939 1072.671,731.182 1064.74,708.01 1099.29,676.468 1085.853,654.01 1041.725,669.544 1025.055,651.601 
			1043.788,608.734 1022.379,593.683 988.384,625.822 965.857,616.211 		"/>
		<radialGradient id="SVGID_14_" cx="911.8268" cy="772.6145" r="92.656" gradientUnits="userSpaceOnUse">
			<stop  offset="0.0056" style="stop-color:#E2E5F4"/>
			<stop  offset="0.4494" style="stop-color:#C7CEE9"/>
			<stop  offset="1" style="stop-color:#A8B5DC"/>
		</radialGradient>
		<circle fill="url(#SVGID_14_)" cx="911.827" cy="772.615" r="92.644"/>
		<radialGradient id="SVGID_15_" cx="1058.1139" cy="1454.9871" r="79.4069" gradientUnits="userSpaceOnUse">
			<stop  offset="0" style="stop-color:#FFFFFF"/>
			<stop  offset="0.0242" style="stop-color:#FAFCF8"/>
			<stop  offset="0.1773" style="stop-color:#DBECCE"/>
			<stop  offset="0.3338" style="stop-color:#C2DEAC"/>
			<stop  offset="0.4922" style="stop-color:#AFD391"/>
			<stop  offset="0.6532" style="stop-color:#A1CC7E"/>
			<stop  offset="0.8184" style="stop-color:#99C773"/>
			<stop  offset="0.9944" style="stop-color:#96C66F"/>
		</radialGradient>
		<polygon fill="url(#SVGID_15_)" points="1086.781,1380.761 1077.353,1377.736 1068.693,1393.174 1059.474,1392.24 
			1054.088,1375.378 1044.244,1376.449 1042.613,1394.075 1033.81,1396.971 1022.032,1383.758 1013.475,1388.74 1019.153,1405.506 
			1012.29,1411.732 996.155,1404.452 990.365,1412.484 1002.371,1425.49 998.634,1433.97 980.933,1433.881 978.91,1443.575 
			995.169,1450.573 995.203,1459.84 978.997,1466.958 981.091,1476.636 998.791,1476.417 1002.591,1484.868 990.681,1497.963 
			996.531,1505.953 1012.611,1498.553 1019.521,1504.728 1013.967,1521.535 1022.561,1526.454 1034.241,1513.154 1043.064,1515.985 
			1044.827,1533.598 1054.678,1534.596 1059.939,1517.695 1069.151,1516.692 1077.925,1532.066 1087.331,1528.971 
			1085.262,1511.391 1093.27,1506.728 1107.538,1517.204 1114.872,1510.551 1105.832,1495.333 1111.251,1487.815 1128.547,1491.582 
			1132.541,1482.521 1118.092,1472.296 1119.985,1463.224 1137.318,1459.631 1137.281,1449.729 1119.923,1446.264 
			1117.962,1437.207 1132.335,1426.874 1128.274,1417.843 1111.006,1421.738 1105.532,1414.261 1114.459,1398.976 
			1107.076,1392.378 1092.886,1402.959 1084.843,1398.355 		"/>
		<radialGradient id="SVGID_16_" cx="1057.6532" cy="1454.7534" r="35.0624" gradientUnits="userSpaceOnUse">
			<stop  offset="0" style="stop-color:#FFF2DB"/>
			<stop  offset="0.309" style="stop-color:#D7B189"/>
			<stop  offset="0.7508" style="stop-color:#92562D"/>
			<stop  offset="0.7809" style="stop-color:#8D5027"/>
			<stop  offset="1" style="stop-color:#541513"/>
		</radialGradient>
		<circle fill="url(#SVGID_16_)" cx="1057.653" cy="1454.754" r="35.054"/>
		<radialGradient id="SVGID_17_" cx="804.1205" cy="1065.17" r="67.7447" gradientUnits="userSpaceOnUse">
			<stop  offset="0" style="stop-color:#FFFFFF"/>
			<stop  offset="0.1175" style="stop-color:#D6ECEF"/>
			<stop  offset="0.2566" style="stop-color:#ACD9E0"/>
			<stop  offset="0.399" style="stop-color:#8AC9D3"/>
			<stop  offset="0.5431" style="stop-color:#6FBDC9"/>
			<stop  offset="0.6896" style="stop-color:#5CB4C2"/>
			<stop  offset="0.8399" style="stop-color:#51AFBD"/>
			<stop  offset="1" style="stop-color:#4DADBC"/>
		</radialGradient>
		<polygon fill="url(#SVGID_17_)" points="739.172,1044.786 737.132,1052.975 750.748,1059.468 750.474,1067.361 736.438,1072.892 
			737.904,1081.203 752.985,1081.596 755.944,1088.918 745.372,1099.68 750.092,1106.676 764.029,1100.901 769.711,1106.387 
			764.429,1120.518 771.586,1124.989 781.97,1114.045 789.391,1116.746 790.314,1131.803 798.671,1132.977 803.706,1118.756 
			811.584,1118.204 818.552,1131.585 826.664,1129.258 825.479,1114.219 832.452,1110.51 844.259,1119.9 850.723,1114.475 
			843.524,1101.218 848.385,1094.994 862.991,1098.769 866.69,1091.183 854.721,1082.001 856.631,1074.338 871.509,1071.846 
			871.803,1063.412 857.133,1059.891 855.761,1052.114 868.34,1043.786 865.178,1035.962 850.345,1038.712 845.928,1032.165 
			854.032,1019.441 847.961,1013.579 835.529,1022.125 828.831,1017.94 831.059,1003.02 823.128,1000.135 815.247,1012.998 
			807.426,1011.9 803.393,997.363 794.974,997.953 793.007,1012.91 785.415,1015.087 775.818,1003.448 768.367,1007.411 
			772.653,1021.875 766.603,1026.952 753.102,1020.222 747.907,1026.873 757.705,1038.343 754.244,1045.442 		"/>
		<radialGradient id="SVGID_18_" cx="803.7375" cy="1065.3842" r="29.8805" gradientUnits="userSpaceOnUse">
			<stop  offset="0" style="stop-color:#FFFFFF"/>
			<stop  offset="0.0242" style="stop-color:#FAFCF8"/>
			<stop  offset="0.1773" style="stop-color:#DBECCE"/>
			<stop  offset="0.3338" style="stop-color:#C2DEAC"/>
			<stop  offset="0.4922" style="stop-color:#AFD391"/>
			<stop  offset="0.6532" style="stop-color:#A1CC7E"/>
			<stop  offset="0.8184" style="stop-color:#99C773"/>
			<stop  offset="0.9944" style="stop-color:#96C66F"/>
		</radialGradient>
		<circle fill="url(#SVGID_18_)" cx="803.737" cy="1065.384" r="29.875"/>
		<radialGradient id="SVGID_19_" cx="1843.5082" cy="1024.3713" r="117.3467" gradientUnits="userSpaceOnUse">
			<stop  offset="0" style="stop-color:#FFFFFF"/>
			<stop  offset="0.1102" style="stop-color:#CBE2F0"/>
			<stop  offset="0.239" style="stop-color:#96C5E1"/>
			<stop  offset="0.3696" style="stop-color:#68ABD3"/>
			<stop  offset="0.4992" style="stop-color:#4396C8"/>
			<stop  offset="0.6276" style="stop-color:#2586C0"/>
			<stop  offset="0.7546" style="stop-color:#117ABA"/>
			<stop  offset="0.8795" style="stop-color:#0473B6"/>
			<stop  offset="1" style="stop-color:#0071B5"/>
		</radialGradient>
		<polygon fill="url(#SVGID_19_)" points="1941.83,1089.655 1949.105,1076.958 1929.456,1059.689 1933.645,1046.65 
			1959.675,1044.057 1961.156,1029.499 1936.183,1021.714 1934.706,1008.099 1957.431,995.143 1952.863,981.241 1926.882,984.287 
			1919.996,972.45 1935.486,951.37 1925.658,940.528 1903.163,953.878 1892.057,945.866 1897.634,920.308 1884.246,914.4 
			1869.126,935.746 1855.721,932.943 1850.421,907.327 1835.787,907.375 1830.656,933.026 1817.27,935.917 1802.009,914.671 
			1788.661,920.668 1794.406,946.188 1783.354,954.274 1760.77,941.072 1751.015,951.979 1766.643,972.956 1759.835,984.838 
			1733.835,981.963 1729.359,995.895 1752.168,1008.702 1750.782,1022.326 1725.86,1030.275 1727.438,1044.823 1753.484,1047.245 
			1757.759,1060.255 1738.225,1077.653 1745.583,1090.302 1770.363,1081.92 1779.56,1092.067 1768.791,1115.907 1780.658,1124.469 
			1799.886,1106.733 1812.415,1112.262 1812.274,1138.42 1826.598,1141.416 1836.949,1117.392 1850.644,1117.347 1861.154,1141.302 
			1875.458,1138.212 1875.144,1112.055 1887.636,1106.444 1906.981,1124.052 1918.791,1115.412 1907.865,1091.644 
			1916.995,1081.437 		"/>
		<radialGradient id="SVGID_20_" cx="1843.8477" cy="1024.7745" r="51.8143" gradientUnits="userSpaceOnUse">
			<stop  offset="0" style="stop-color:#FFFFFF"/>
			<stop  offset="0.1102" style="stop-color:#CBE2F0"/>
			<stop  offset="0.239" style="stop-color:#96C5E1"/>
			<stop  offset="0.3696" style="stop-color:#68ABD3"/>
			<stop  offset="0.4992" style="stop-color:#4396C8"/>
			<stop  offset="0.6276" style="stop-color:#2586C0"/>
			<stop  offset="0.7546" style="stop-color:#117ABA"/>
			<stop  offset="0.8795" style="stop-color:#0473B6"/>
			<stop  offset="1" style="stop-color:#0071B5"/>
		</radialGradient>
		<circle fill="url(#SVGID_20_)" cx="1843.848" cy="1024.775" r="51.803"/>
		<radialGradient id="SVGID_21_" cx="1846.7361" cy="385.9659" r="101.5279" gradientUnits="userSpaceOnUse">
			<stop  offset="0" style="stop-color:#FFFFFF"/>
			<stop  offset="0.0175" style="stop-color:#FEFBFC"/>
			<stop  offset="0.2178" style="stop-color:#F8D6E2"/>
			<stop  offset="0.4183" style="stop-color:#F3B9CD"/>
			<stop  offset="0.6166" style="stop-color:#EFA5BE"/>
			<stop  offset="0.8117" style="stop-color:#ED98B5"/>
			<stop  offset="1" style="stop-color:#EC94B2"/>
		</radialGradient>
		<polygon fill="url(#SVGID_21_)" points="1886.182,292.377 1874.254,288.166 1862.625,307.56 1850.886,306.026 1844.632,284.294 
			1832.022,285.298 1829.286,307.746 1817.938,311.119 1803.386,293.809 1792.274,299.856 1798.906,321.475 1789.911,329.172 
			1769.576,319.278 1761.884,329.322 1776.736,346.375 1771.649,357.065 1749.049,356.297 1746.107,368.601 1766.61,378.139 
			1766.312,389.974 1745.353,398.465 1747.669,410.901 1770.28,411.275 1774.821,422.209 1759.127,438.49 1766.302,448.909 
			1787.11,440.054 1795.705,448.195 1787.991,469.453 1798.783,476.052 1814.191,459.5 1825.354,463.441 1826.953,485.998 
			1839.496,487.638 1846.839,466.249 1858.64,465.31 1869.276,485.266 1881.402,481.662 1879.41,459.136 1889.809,453.478 
			1907.642,467.383 1917.254,459.159 1906.272,439.39 1913.471,429.991 1935.418,435.441 1940.853,424.018 1922.781,410.426 
			1925.534,398.911 1947.8,394.964 1948.12,382.317 1926.081,377.25 1923.912,365.612 1942.648,352.949 1937.796,341.266 
			1915.602,345.601 1908.887,335.851 1920.853,316.662 1911.668,307.963 1893.156,320.95 1883.056,314.774 		"/>
		<radialGradient id="SVGID_22_" cx="1846.2487" cy="385.7886" r="44.7943" gradientUnits="userSpaceOnUse">
			<stop  offset="0" style="stop-color:#77C697"/>
			<stop  offset="0.2573" style="stop-color:#38BC80"/>
			<stop  offset="0.5" style="stop-color:#00B36C"/>
			<stop  offset="0.5432" style="stop-color:#00B269"/>
			<stop  offset="1" style="stop-color:#00A652"/>
		</radialGradient>
		<circle fill="url(#SVGID_22_)" cx="1846.249" cy="385.789" r="44.783"/>
		<radialGradient id="SVGID_23_" cx="1252.9832" cy="1436.124" r="73.6848" gradientUnits="userSpaceOnUse">
			<stop  offset="0" style="stop-color:#E5E2DF"/>
			<stop  offset="0" style="stop-color:#F1EFEE"/>
			<stop  offset="0" style="stop-color:#FFFFFF"/>
			<stop  offset="0.1259" style="stop-color:#F0F0F1"/>
			<stop  offset="0.3664" style="stop-color:#C9CACB"/>
			<stop  offset="0.5225" style="stop-color:#ADAEB0"/>
			<stop  offset="0.6029" style="stop-color:#A3A5A7"/>
			<stop  offset="0.7382" style="stop-color:#898D90"/>
			<stop  offset="0.9108" style="stop-color:#5F6769"/>
			<stop  offset="1" style="stop-color:#465053"/>
		</radialGradient>
		<polygon fill="url(#SVGID_23_)" points="1315.182,1476.224 1319.641,1468.196 1307.166,1457.524 1309.686,1449.307 
			1325.998,1447.461 1326.806,1438.313 1311.069,1433.638 1310.028,1425.107 1324.18,1416.786 1321.197,1408.1 1304.919,1410.23 
			1300.499,1402.859 1310.042,1389.502 1303.784,1382.781 1289.78,1391.347 1282.744,1386.412 1286.029,1370.327 1277.579,1366.732 
			1268.269,1380.254 1259.834,1378.607 1256.293,1362.577 1247.111,1362.73 1244.106,1378.87 1235.731,1380.796 1225.976,1367.592 
			1217.65,1371.466 1221.469,1387.432 1214.601,1392.599 1200.319,1384.504 1194.289,1391.43 1204.272,1404.463 1200.099,1411.976 
			1183.76,1410.39 1181.068,1419.17 1195.489,1427.015 1194.733,1435.576 1179.161,1440.773 1180.272,1449.889 1196.637,1451.19 
			1199.429,1459.319 1187.317,1470.4 1192.04,1478.276 1207.52,1472.808 1213.376,1479.098 1206.818,1494.148 1214.337,1499.422 
			1226.254,1488.131 1234.162,1491.495 1234.293,1507.911 1243.306,1509.671 1249.601,1494.509 1258.194,1494.366 1264.99,1509.31 
			1273.94,1507.251 1273.524,1490.84 1281.316,1487.214 1293.603,1498.101 1300.941,1492.58 1293.886,1477.757 1299.529,1471.275 		
			"/>
		<radialGradient id="SVGID_24_" cx="1253.1533" cy="1436.3323" r="32.5174" gradientUnits="userSpaceOnUse">
			<stop  offset="0" style="stop-color:#FFFFFF"/>
			<stop  offset="0.0047" style="stop-color:#FDFDFE"/>
			<stop  offset="0.149" style="stop-color:#C9C8E1"/>
			<stop  offset="0.295" style="stop-color:#9B9AC8"/>
			<stop  offset="0.4399" style="stop-color:#7674B4"/>
			<stop  offset="0.5835" style="stop-color:#5A57A4"/>
			<stop  offset="0.7255" style="stop-color:#454399"/>
			<stop  offset="0.8652" style="stop-color:#393692"/>
			<stop  offset="1" style="stop-color:#353290"/>
		</radialGradient>
		<circle fill="url(#SVGID_24_)" cx="1253.153" cy="1436.332" r="32.51"/>
		<radialGradient id="SVGID_25_" cx="547.5418" cy="323.4219" r="93.0278" gradientUnits="userSpaceOnUse">
			<stop  offset="0" style="stop-color:#FFFFFF"/>
			<stop  offset="0.0047" style="stop-color:#FDFDFE"/>
			<stop  offset="0.149" style="stop-color:#C9C8E1"/>
			<stop  offset="0.295" style="stop-color:#9B9AC8"/>
			<stop  offset="0.4399" style="stop-color:#7674B4"/>
			<stop  offset="0.5835" style="stop-color:#5A57A4"/>
			<stop  offset="0.7255" style="stop-color:#454399"/>
			<stop  offset="0.8652" style="stop-color:#393692"/>
			<stop  offset="1" style="stop-color:#353290"/>
		</radialGradient>
		<polygon fill="url(#SVGID_25_)" points="638.74,303.59 635.542,292.451 614.89,294.082 609.796,284.507 622.688,268.291 
			615.236,259.416 597.033,269.305 588.485,262.63 593.666,242.573 583.249,237.495 570.642,253.934 560.118,251.313 
			556.693,230.882 545.111,230.481 540.28,250.626 529.6,252.512 518.161,235.24 507.418,239.584 511.198,259.952 502.209,266.02 
			484.734,254.894 476.686,263.232 488.424,280.302 482.679,289.501 462.19,286.445 458.229,297.336 475.895,308.155 
			474.389,318.895 454.428,324.437 455.239,335.998 475.779,338.696 478.771,349.121 462.79,362.302 468.233,372.533 
			488.095,366.644 495.068,374.95 485.83,393.493 494.964,400.625 510.713,387.167 520.462,391.918 519.564,412.615 530.81,415.416 
			539.723,396.715 550.562,397.091 558.16,416.363 569.572,414.348 570.109,393.639 580.164,389.573 594.944,404.089 
			604.549,397.606 596.617,378.469 604.149,370.665 623.555,377.915 629.693,368.085 614.663,353.829 618.369,343.637 
			639.046,342.366 640.656,330.89 621.126,323.98 620.367,313.161 		"/>
		<radialGradient id="SVGID_26_" cx="547.8167" cy="323.4402" r="41.0358" gradientUnits="userSpaceOnUse">
			<stop  offset="0" style="stop-color:#FFFFFF"/>
			<stop  offset="0.0023" style="stop-color:#FFFEFE"/>
			<stop  offset="0.1599" style="stop-color:#F8D6D5"/>
			<stop  offset="0.3199" style="stop-color:#F3B6B3"/>
			<stop  offset="0.4829" style="stop-color:#EE9C98"/>
			<stop  offset="0.6487" style="stop-color:#EB8A85"/>
			<stop  offset="0.8188" style="stop-color:#EA7F7A"/>
			<stop  offset="1" style="stop-color:#E97B76"/>
		</radialGradient>
		<circle fill="url(#SVGID_26_)" cx="547.817" cy="323.44" r="41.025"/>
		<radialGradient id="SVGID_27_" cx="1398.0886" cy="1278.1093" r="58.3813" gradientUnits="userSpaceOnUse">
			<stop  offset="0" style="stop-color:#FFFFFF"/>
			<stop  offset="0.1006" style="stop-color:#F5E6DD"/>
			<stop  offset="0.2424" style="stop-color:#E9C8B3"/>
			<stop  offset="0.3875" style="stop-color:#DFAE91"/>
			<stop  offset="0.5344" style="stop-color:#D89B76"/>
			<stop  offset="0.6837" style="stop-color:#D28D63"/>
			<stop  offset="0.8368" style="stop-color:#CF8558"/>
			<stop  offset="1" style="stop-color:#CE8254"/>
		</radialGradient>
		<polygon fill="url(#SVGID_27_)" points="1408.623,1335.833 1415.679,1334.071 1415.108,1321.083 1421.224,1318.097 
			1431.113,1326.537 1436.842,1322.057 1431.037,1310.425 1435.411,1305.209 1447.877,1308.897 1451.289,1302.475 
			1441.255,1294.209 1443.129,1287.666 1456.017,1285.964 1456.522,1278.709 1443.993,1275.239 1443.044,1268.499 
			1454.126,1261.703 1451.636,1254.869 1438.779,1256.795 1435.171,1251.024 1442.53,1240.308 1437.477,1235.078 1426.514,1242.067 
			1420.87,1238.263 1423.235,1225.479 1416.491,1222.757 1409.319,1233.6 1402.616,1232.421 1399.576,1219.78 1392.308,1220.037 
			1390.167,1232.86 1383.563,1234.509 1375.645,1224.197 1369.11,1227.388 1372.369,1239.973 1367.007,1244.165 1355.58,1237.966 
			1350.907,1243.539 1359.003,1253.71 1355.81,1259.721 1342.849,1258.706 1340.847,1265.697 1352.381,1271.696 1351.908,1278.486 
			1339.655,1282.83 1340.67,1290.032 1353.646,1290.821 1355.976,1297.216 1346.549,1306.168 1350.405,1312.335 1362.581,1307.778 
			1367.311,1312.672 1362.34,1324.685 1368.37,1328.75 1377.64,1319.634 1383.952,1322.182 1384.297,1335.178 1391.459,1336.438 
			1396.22,1324.341 1403.022,1324.101 		"/>
		<radialGradient id="SVGID_28_" cx="1398.1606" cy="1278.3739" r="25.7523" gradientUnits="userSpaceOnUse">
			<stop  offset="0" style="stop-color:#FFFFFF"/>
			<stop  offset="0.0023" style="stop-color:#FFFEFE"/>
			<stop  offset="0.1599" style="stop-color:#F8D6D5"/>
			<stop  offset="0.3199" style="stop-color:#F3B6B3"/>
			<stop  offset="0.4829" style="stop-color:#EE9C98"/>
			<stop  offset="0.6487" style="stop-color:#EB8A85"/>
			<stop  offset="0.8188" style="stop-color:#EA7F7A"/>
			<stop  offset="1" style="stop-color:#E97B76"/>
		</radialGradient>
		<circle fill="url(#SVGID_28_)" cx="1398.161" cy="1278.374" r="25.745"/>
		<radialGradient id="SVGID_29_" cx="756.281" cy="281.4173" r="113.669" gradientUnits="userSpaceOnUse">
			<stop  offset="0" style="stop-color:#77C697"/>
			<stop  offset="0.2573" style="stop-color:#38BC80"/>
			<stop  offset="0.5" style="stop-color:#00B36C"/>
			<stop  offset="0.5432" style="stop-color:#00B269"/>
			<stop  offset="1" style="stop-color:#00A652"/>
		</radialGradient>
		<polygon fill="url(#SVGID_29_)" points="833.164,365.027 842.982,354.823 828.607,333.988 835.609,322.737 860.651,326.433 
			865.471,313.117 843.864,299.93 845.684,286.804 870.065,279.995 869.051,265.87 843.949,262.611 840.273,249.879 
			859.776,233.742 853.106,221.251 828.848,228.484 820.311,218.348 831.565,195.674 820.39,186.976 801.171,203.45 789.25,197.662 
			790.308,172.371 776.562,168.97 765.705,191.837 752.46,191.398 743.14,167.863 729.199,170.347 728.582,195.653 716.304,200.64 
			698.217,182.93 686.491,190.87 696.22,214.239 687.032,223.788 663.305,214.966 655.823,226.989 674.216,244.38 669.706,256.841 
			644.443,258.433 642.497,272.459 666.374,280.866 667.322,294.084 644.89,305.813 648.818,319.418 674.05,317.387 
			680.292,329.077 664.57,348.916 673.692,359.747 695.916,347.628 706.374,355.768 700.08,380.287 712.819,386.472 
			728.193,366.362 741.057,369.544 745.28,394.503 759.433,394.971 765.298,370.347 778.345,368.022 792.355,389.105 
			805.474,383.777 800.817,358.896 811.79,351.465 		"/>
		<radialGradient id="SVGID_30_" cx="756.4792" cy="281.0569" r="50.1294" gradientUnits="userSpaceOnUse">
			<stop  offset="0.0056" style="stop-color:#AEB0B7"/>
			<stop  offset="0.3156" style="stop-color:#AAAAA8"/>
			<stop  offset="0.3539" style="stop-color:#A9A9A6"/>
			<stop  offset="0.5001" style="stop-color:#9A9E9E"/>
			<stop  offset="0.6742" style="stop-color:#838C92"/>
			<stop  offset="1" style="stop-color:#657076"/>
		</radialGradient>
		<circle fill="url(#SVGID_30_)" cx="756.479" cy="281.057" r="50.129"/>
		<radialGradient id="SVGID_31_" cx="1720.75" cy="578.7617" r="59.6529" gradientUnits="userSpaceOnUse">
			<stop  offset="0.0056" style="stop-color:#E2E5F4"/>
			<stop  offset="0.4494" style="stop-color:#C7CEE9"/>
			<stop  offset="1" style="stop-color:#A8B5DC"/>
		</radialGradient>
		<polygon fill="url(#SVGID_31_)" points="1720.939,519.096 1713.521,519.516 1711.613,532.66 1704.905,534.488 1696.592,524.129 
			1689.986,527.53 1693.59,540.314 1688.205,544.713 1676.397,538.63 1671.746,544.424 1680.238,554.637 1677.107,560.846 
			1663.847,560.092 1661.954,567.277 1673.866,573.153 1673.531,580.098 1661.11,584.802 1662.304,592.136 1675.576,592.659 
			1678.095,599.14 1668.661,608.49 1672.734,614.704 1685.072,609.784 1690.009,614.68 1685.194,627.058 1691.443,631.078 
			1700.712,621.566 1707.214,624.03 1707.85,637.297 1715.193,638.428 1719.792,625.967 1726.734,625.574 1732.711,637.435 
			1739.88,635.482 1739.013,622.228 1745.195,619.045 1755.48,627.45 1761.234,622.749 1755.051,610.994 1759.404,605.572 
			1772.218,609.067 1775.563,602.432 1765.134,594.208 1766.905,587.484 1780.032,585.465 1780.39,578.043 1767.517,574.772 
			1766.4,567.909 1777.571,560.725 1774.879,553.8 1761.789,556.047 1757.977,550.232 1765.26,539.125 1759.984,533.894 
			1748.94,541.271 1743.092,537.509 1745.229,524.4 1738.281,521.767 1731.192,532.999 1724.319,531.94 		"/>
		<radialGradient id="SVGID_32_" cx="1720.4634" cy="578.7613" r="26.3049" gradientUnits="userSpaceOnUse">
			<stop  offset="0" style="stop-color:#77C697"/>
			<stop  offset="0.2573" style="stop-color:#38BC80"/>
			<stop  offset="0.5" style="stop-color:#00B36C"/>
			<stop  offset="0.5432" style="stop-color:#00B269"/>
			<stop  offset="1" style="stop-color:#00A652"/>
		</radialGradient>
		<circle fill="url(#SVGID_32_)" cx="1720.463" cy="578.761" r="26.303"/>
		<radialGradient id="SVGID_33_" cx="1718.9648" cy="1394.9058" r="196.5354" gradientUnits="userSpaceOnUse">
			<stop  offset="0" style="stop-color:#FCF3DD"/>
			<stop  offset="0" style="stop-color:#FDEDC1"/>
			<stop  offset="0" style="stop-color:#FFE18A"/>
			<stop  offset="0.5506" style="stop-color:#FFCD03"/>
			<stop  offset="0.668" style="stop-color:#F7C50D"/>
			<stop  offset="1" style="stop-color:#E2B124"/>
		</radialGradient>
		<polygon fill="url(#SVGID_33_)" points="1649.105,1211.309 1626.769,1221.393 1636.471,1264.113 1617.987,1277.689 
			1580.126,1255.651 1563.823,1273.948 1590.062,1309.028 1578.698,1328.949 1535.147,1324.215 1527.695,1347.562 
			1565.934,1368.936 1563.655,1391.757 1521.944,1405.147 1524.632,1429.506 1568.259,1433.479 1575.459,1455.254 1542.8,1484.452 
			1555.163,1505.611 1596.634,1491.496 1612.068,1508.46 1594.109,1548.417 1614.009,1562.719 1646.154,1532.956 1667.154,1542.176 
			1666.999,1585.983 1690.996,1590.954 1708.257,1550.69 1731.191,1550.571 1748.867,1590.655 1772.812,1585.435 1772.203,1541.632 
			1793.106,1532.195 1825.557,1561.623 1845.309,1547.116 1826.936,1507.347 1842.194,1490.224 1883.809,1503.909 
			1895.953,1482.622 1862.993,1453.764 1869.967,1431.916 1913.551,1427.491 1915.986,1403.106 1874.138,1390.149 
			1871.623,1367.353 1909.639,1345.583 1901.945,1322.316 1858.445,1327.5 1846.875,1307.698 1872.75,1272.348 1856.258,1254.221 
			1818.627,1276.65 1800.003,1263.266 1809.263,1220.448 1786.824,1210.596 1761.569,1246.392 1739.112,1241.74 1730.155,1198.857 
			1705.649,1198.984 1697.137,1241.957 1674.729,1246.841 		"/>
		<radialGradient id="SVGID_34_" cx="1718.3364" cy="1395.5306" r="86.7717" gradientUnits="userSpaceOnUse">
			<stop  offset="0.0056" style="stop-color:#E6F3E9"/>
			<stop  offset="0.4494" style="stop-color:#C9E6D2"/>
			<stop  offset="1" style="stop-color:#ACDABB"/>
		</radialGradient>
		<circle fill="url(#SVGID_34_)" cx="1718.336" cy="1395.531" r="86.754"/>
		<radialGradient id="SVGID_35_" cx="1690.9888" cy="799.442" r="63.9484" gradientUnits="userSpaceOnUse">
			<stop  offset="0.0056" style="stop-color:#E6F3E9"/>
			<stop  offset="0.4494" style="stop-color:#C9E6D2"/>
			<stop  offset="1" style="stop-color:#ACDABB"/>
		</radialGradient>
		<polygon fill="url(#SVGID_35_)" points="1668,859.257 1675.596,861.68 1682.549,849.237 1689.974,849.977 1694.334,863.548 
			1702.259,862.672 1703.549,848.476 1710.634,846.132 1720.136,856.756 1727.02,852.732 1722.425,839.239 1727.943,834.216 
			1740.945,840.057 1745.597,833.581 1735.911,823.124 1738.91,816.291 1753.164,816.338 1754.779,808.53 1741.677,802.916 
			1741.637,795.454 1754.678,789.7 1752.978,781.909 1738.726,782.11 1735.654,775.31 1745.227,764.749 1740.505,758.323 
			1727.567,764.304 1721.994,759.34 1726.444,745.799 1719.517,741.849 1710.13,752.575 1703.02,750.308 1701.578,736.127 
			1693.643,735.336 1689.43,748.953 1682.013,749.773 1674.927,737.405 1667.357,739.91 1669.046,754.064 1662.604,757.83 
			1651.1,749.413 1645.203,754.78 1652.504,767.023 1648.15,773.084 1634.218,770.074 1631.014,777.375 1642.662,785.59 
			1641.15,792.898 1627.198,795.815 1627.241,803.789 1641.224,806.555 1642.815,813.846 1631.255,822.186 1634.538,829.453 
			1648.437,826.293 1652.856,832.306 1645.688,844.627 1651.642,849.93 1663.054,841.39 1669.537,845.086 		"/>
		<radialGradient id="SVGID_36_" cx="1691.3555" cy="799.6345" r="28.2344" gradientUnits="userSpaceOnUse">
			<stop  offset="0" style="stop-color:#B27867"/>
			<stop  offset="0.5" style="stop-color:#8E4130"/>
			<stop  offset="1" style="stop-color:#7A1E15"/>
		</radialGradient>
		<circle fill="url(#SVGID_36_)" cx="1691.355" cy="799.634" r="28.227"/>
		<radialGradient id="SVGID_37_" cx="2058.9663" cy="442.0396" r="65.4315" gradientUnits="userSpaceOnUse">
			<stop  offset="0" style="stop-color:#FFFBCC"/>
			<stop  offset="0.1146" style="stop-color:#FBF2BB"/>
			<stop  offset="0.3413" style="stop-color:#F0D98E"/>
			<stop  offset="0.3708" style="stop-color:#EED688"/>
			<stop  offset="0.6854" style="stop-color:#EBBB10"/>
			<stop  offset="1" style="stop-color:#C3922E"/>
		</radialGradient>
		<polygon fill="url(#SVGID_37_)" points="2088.193,500.954 2095.278,496.909 2090.717,483.056 2096.416,477.974 2109.658,484.086 
			2114.486,477.508 2104.684,466.708 2107.823,459.747 2122.407,459.944 2124.142,451.972 2110.795,446.092 2110.832,438.456 
			2124.234,432.705 2122.576,424.716 2107.992,424.773 2104.92,417.783 2114.824,407.077 2110.061,400.453 2096.76,406.438 
			2091.11,401.301 2095.804,387.492 2088.758,383.379 2079.041,394.256 2071.791,391.861 2070.463,377.337 2062.353,376.445 
			2057.9,390.334 2050.302,391.095 2043.181,378.367 2035.41,380.851 2036.991,395.35 2030.36,399.136 2018.677,390.404 
			2012.588,395.834 2019.93,408.437 2015.412,414.592 2001.188,411.367 1997.834,418.805 2009.667,427.332 2008.043,434.793 
			1993.737,437.632 1993.698,445.791 2007.976,448.767 2009.528,456.243 1997.613,464.656 2000.896,472.125 2015.15,469.037 
			2019.609,475.236 2012.146,487.767 2018.183,493.256 2029.949,484.637 2036.543,488.486 2034.823,502.969 2042.57,505.528 
			2049.813,492.869 2057.403,493.703 2061.722,507.634 2069.84,506.82 2071.308,492.309 2078.581,489.985 		"/>
		<radialGradient id="SVGID_38_" cx="2059.4453" cy="442.0769" r="28.8865" gradientUnits="userSpaceOnUse">
			<stop  offset="0.0056" style="stop-color:#AEB0B7"/>
			<stop  offset="0.3156" style="stop-color:#AAAAA8"/>
			<stop  offset="0.3539" style="stop-color:#A9A9A6"/>
			<stop  offset="0.5001" style="stop-color:#9A9E9E"/>
			<stop  offset="0.6742" style="stop-color:#838C92"/>
			<stop  offset="1" style="stop-color:#657076"/>
		</radialGradient>
		<circle fill="url(#SVGID_38_)" cx="2059.445" cy="442.077" r="28.883"/>
		<radialGradient id="SVGID_39_" cx="1449.0314" cy="1414.1909" r="55.0762" gradientUnits="userSpaceOnUse">
			<stop  offset="0" style="stop-color:#FFFFFF"/>
			<stop  offset="0.0242" style="stop-color:#FAFCF8"/>
			<stop  offset="0.1773" style="stop-color:#DBECCE"/>
			<stop  offset="0.3338" style="stop-color:#C2DEAC"/>
			<stop  offset="0.4922" style="stop-color:#AFD391"/>
			<stop  offset="0.6532" style="stop-color:#A1CC7E"/>
			<stop  offset="0.8184" style="stop-color:#99C773"/>
			<stop  offset="0.9944" style="stop-color:#96C66F"/>
		</radialGradient>
		<polygon fill="url(#SVGID_39_)" points="1496.972,1441.354 1499.96,1435.178 1490.206,1427.742 1491.74,1421.506 
			1503.83,1419.444 1504.048,1412.586 1492.113,1409.76 1490.978,1403.44 1501.184,1396.638 1498.594,1390.284 1486.541,1392.557 
			1482.933,1387.245 1489.49,1376.88 1484.54,1372.129 1474.453,1379.108 1468.997,1375.722 1470.772,1363.586 1464.317,1361.26 
			1457.941,1371.738 1451.579,1370.864 1448.264,1359.055 1441.421,1359.556 1439.858,1371.721 1433.691,1373.51 1425.859,1364.071 
			1419.811,1367.311 1423.332,1379.061 1418.426,1383.204 1407.432,1377.766 1403.225,1383.186 1411.22,1392.487 1408.423,1398.268 
			1396.168,1397.771 1394.529,1404.434 1405.616,1409.68 1405.412,1416.098 1394.015,1420.629 1395.227,1427.383 1407.49,1427.665 
			1409.914,1433.611 1401.345,1442.387 1405.2,1448.063 1416.516,1443.334 1421.15,1447.78 1416.891,1459.282 1422.721,1462.9 
			1431.136,1453.976 1437.177,1456.153 1437.964,1468.393 1444.762,1469.327 1448.82,1457.752 1455.224,1457.284 1460.922,1468.145 
			1467.512,1466.233 1466.511,1454.009 1472.171,1450.976 1481.794,1458.581 1487.036,1454.154 1481.15,1443.393 1485.087,1438.321 
					"/>
		<radialGradient id="SVGID_40_" cx="1449.0233" cy="1414.2053" r="24.2959" gradientUnits="userSpaceOnUse">
			<stop  offset="0.0056" style="stop-color:#E2E5F4"/>
			<stop  offset="0.4494" style="stop-color:#C7CEE9"/>
			<stop  offset="1" style="stop-color:#A8B5DC"/>
		</radialGradient>
		<circle fill="url(#SVGID_40_)" cx="1449.023" cy="1414.205" r="24.29"/>
		<radialGradient id="SVGID_41_" cx="1997.577" cy="1471.1897" r="77.9924" gradientUnits="userSpaceOnUse">
			<stop  offset="0.1798" style="stop-color:#F4E8D9"/>
			<stop  offset="0.5899" style="stop-color:#EDD089"/>
			<stop  offset="1" style="stop-color:#C08329"/>
		</radialGradient>
		<polygon fill="url(#SVGID_41_)" points="2038.726,1404.686 2030.147,1400.126 2019.101,1413.528 2010.36,1411.022 
			2008.092,1393.803 1998.4,1393.126 1993.76,1409.863 1984.756,1411.129 1975.68,1396.321 1966.55,1399.645 1969.118,1416.822 
			1961.408,1421.641 1947.094,1411.805 1940.105,1418.554 1949.438,1433.202 1944.354,1440.74 1927.277,1437.576 1923.638,1446.585 
			1938.121,1456.17 1936.543,1465.124 1919.656,1469.18 1919.995,1478.89 1937.125,1481.755 1939.326,1490.578 1925.548,1501.152 
			1929.807,1509.884 1946.622,1505.534 1952.22,1512.699 1943.934,1527.963 1951.378,1534.207 1964.969,1523.395 1972.998,1527.663 
			1971.636,1544.977 1980.976,1547.654 1988.995,1532.248 1998.065,1532.882 2003.864,1549.253 2013.485,1547.9 2014.544,1530.565 
			2023.088,1527.454 2035.044,1540.051 2043.283,1534.902 2037.2,1518.635 2043.74,1512.318 2059.786,1518.963 2065.219,1510.908 
			2053.045,1498.521 2056.45,1490.09 2073.812,1489.634 2075.498,1480.066 2059.339,1473.702 2059.021,1464.615 2074.696,1457.136 
			2072.345,1447.709 2054.993,1448.468 2051.007,1440.296 2062.285,1427.089 2056.303,1419.433 2040.761,1427.183 
			2033.795,1421.339 		"/>
		<radialGradient id="SVGID_42_" cx="1997.7323" cy="1471.0719" r="34.4021" gradientUnits="userSpaceOnUse">
			<stop  offset="0" style="stop-color:#FFFFFF"/>
			<stop  offset="0.0242" style="stop-color:#FAFCF8"/>
			<stop  offset="0.1773" style="stop-color:#DBECCE"/>
			<stop  offset="0.3338" style="stop-color:#C2DEAC"/>
			<stop  offset="0.4922" style="stop-color:#AFD391"/>
			<stop  offset="0.6532" style="stop-color:#A1CC7E"/>
			<stop  offset="0.8184" style="stop-color:#99C773"/>
			<stop  offset="0.9944" style="stop-color:#96C66F"/>
		</radialGradient>
		<circle fill="url(#SVGID_42_)" cx="1997.732" cy="1471.072" r="34.394"/>
		<radialGradient id="SVGID_43_" cx="2117.4229" cy="978.5507" r="62.6712" gradientUnits="userSpaceOnUse">
			<stop  offset="0" style="stop-color:#FFFFFF"/>
			<stop  offset="0.0546" style="stop-color:#FDE8E8"/>
			<stop  offset="0.1819" style="stop-color:#F8B6B7"/>
			<stop  offset="0.3125" style="stop-color:#F48C8D"/>
			<stop  offset="0.4442" style="stop-color:#F16A6B"/>
			<stop  offset="0.5775" style="stop-color:#EE4F50"/>
			<stop  offset="0.713" style="stop-color:#EC3C3D"/>
			<stop  offset="0.852" style="stop-color:#EB3132"/>
			<stop  offset="1" style="stop-color:#EB2D2E"/>
		</radialGradient>
		<polygon fill="url(#SVGID_43_)" points="2059.679,954.147 2057.072,961.507 2069.037,968.697 2068.083,975.942 2054.666,979.79 
			2055.278,987.574 2069.133,989.275 2071.209,996.282 2060.516,1005.255 2064.242,1012.117 2077.591,1008.036 2082.337,1013.593 
			2076.218,1026.139 2082.413,1030.892 2092.948,1021.735 2099.544,1024.88 2099.057,1038.831 2106.65,1040.653 2112.549,1028.003 
			2119.854,1028.194 2125.084,1041.136 2132.761,1039.713 2133.005,1025.756 2139.756,1022.959 2149.798,1032.656 
			2156.233,1028.233 2150.779,1015.384 2155.809,1010.083 2168.926,1014.857 2173.006,1008.198 2162.797,998.679 2165.236,991.79 
			2179.161,990.816 2180.18,983.074 2166.982,978.53 2166.408,971.245 2178.733,964.691 2176.515,957.204 2162.61,958.421 
			2159.123,951.999 2167.716,940.999 2162.645,935.061 2150.436,941.828 2144.638,937.38 2148.015,923.836 2140.967,920.474 
			2132.566,931.622 2125.461,929.916 2123.036,916.17 2115.23,915.966 2112.09,929.566 2104.905,930.898 2097.099,919.326 
			2089.885,922.315 2092.548,936.017 2086.526,940.156 2074.688,932.759 2069.313,938.424 2077.32,949.858 2073.501,956.089 		"/>
		<radialGradient id="SVGID_44_" cx="2117.3157" cy="978.8489" r="27.65" gradientUnits="userSpaceOnUse">
			<stop  offset="0.0056" style="stop-color:#E2E5F4"/>
			<stop  offset="0.4494" style="stop-color:#C7CEE9"/>
			<stop  offset="1" style="stop-color:#A8B5DC"/>
		</radialGradient>
		<circle fill="url(#SVGID_44_)" cx="2117.316" cy="978.849" r="27.643"/>
		<radialGradient id="SVGID_45_" cx="537.8033" cy="932.6632" r="177.2922" gradientUnits="userSpaceOnUse">
			<stop  offset="0" style="stop-color:#FFFFFF"/>
			<stop  offset="0.0175" style="stop-color:#FEFBFC"/>
			<stop  offset="0.2178" style="stop-color:#F8D6E2"/>
			<stop  offset="0.4183" style="stop-color:#F3B9CD"/>
			<stop  offset="0.6166" style="stop-color:#EFA5BE"/>
			<stop  offset="0.8117" style="stop-color:#ED98B5"/>
			<stop  offset="1" style="stop-color:#EC94B2"/>
		</radialGradient>
		<polygon fill="url(#SVGID_45_)" points="634.481,1082.637 652.245,1069.485 635.539,1033.679 649.241,1018.184 686.822,1030.384 
			697.702,1011.143 667.876,985.228 674.091,965.499 713.385,961.359 715.498,939.357 677.711,927.813 675.364,907.262 
			709.577,887.497 702.558,866.538 663.342,871.362 652.84,853.542 676.056,821.57 661.119,805.278 627.256,825.635 
			610.413,813.628 618.617,774.977 598.345,766.169 575.69,798.54 555.419,794.421 547.194,755.775 525.092,755.973 
			517.562,794.761 497.368,799.243 474.135,767.283 454.024,776.454 462.922,814.951 446.297,827.259 412.073,807.512 
			397.431,824.07 421.217,855.62 411.036,873.626 371.74,869.506 365.098,890.588 399.66,909.735 397.683,930.326 360.108,942.545 
			362.616,964.505 401.978,967.94 408.546,987.555 379.19,1014.001 390.413,1033.043 427.769,1020.17 441.747,1035.418 
			425.686,1071.517 443.683,1084.349 472.574,1057.395 491.546,1065.639 491.556,1105.15 513.216,1109.552 528.646,1073.177 
			549.331,1072.992 565.411,1109.083 586.989,1104.294 586.29,1064.789 605.111,1056.206 		"/>
		<radialGradient id="SVGID_46_" cx="538.2909" cy="933.4587" r="78.2481" gradientUnits="userSpaceOnUse">
			<stop  offset="0" style="stop-color:#FFFFFF"/>
			<stop  offset="0.0546" style="stop-color:#FDE8E8"/>
			<stop  offset="0.1819" style="stop-color:#F8B6B7"/>
			<stop  offset="0.3125" style="stop-color:#F48C8D"/>
			<stop  offset="0.4442" style="stop-color:#F16A6B"/>
			<stop  offset="0.5775" style="stop-color:#EE4F50"/>
			<stop  offset="0.713" style="stop-color:#EC3C3D"/>
			<stop  offset="0.852" style="stop-color:#EB3132"/>
			<stop  offset="1" style="stop-color:#EB2D2E"/>
		</radialGradient>
		<circle fill="url(#SVGID_46_)" cx="538.291" cy="933.459" r="78.246"/>
		<radialGradient id="SVGID_47_" cx="1271.114" cy="831.839" r="125.9882" gradientUnits="userSpaceOnUse">
			<stop  offset="0" style="stop-color:#F7977A"/>
			<stop  offset="0.0711" style="stop-color:#F68D71"/>
			<stop  offset="0.5" style="stop-color:#F1563C"/>
			<stop  offset="0.745" style="stop-color:#DE3B34"/>
			<stop  offset="1" style="stop-color:#CE242C"/>
		</radialGradient>
		<polygon fill="url(#SVGID_47_)" points="1162.107,896.481 1170.943,909.454 1196.817,898.599 1207.43,908.755 1197.723,935.081 
			1211.071,943.338 1230.293,922.899 1244.119,927.86 1245.959,955.858 1261.512,957.972 1270.759,931.481 1285.408,930.39 
			1298.476,955.219 1313.545,950.825 1311.217,922.863 1324.155,915.908 1346.193,933.275 1358.171,923.132 1344.672,898.534 
			1353.663,886.918 1380.859,893.82 1387.676,879.681 1365.339,862.701 1368.828,848.432 1396.48,843.676 1396.957,827.987 
			1369.645,821.56 1367.029,807.106 1390.355,791.513 1384.41,776.987 1356.845,782.225 1348.576,770.084 1363.544,746.352 
			1352.204,735.499 1329.152,751.496 1316.66,743.768 1320.681,716 1305.907,710.698 1291.355,734.688 1276.8,732.709 
			1269.179,705.706 1253.526,706.871 1249.989,734.706 1235.888,738.819 1217.942,717.25 1204.117,724.681 1212.207,751.548 
			1200.998,761.04 1175.831,748.635 1166.223,761.047 1184.542,782.301 1178.162,795.532 1150.125,794.435 1146.397,809.682 
			1171.776,821.647 1171.33,836.33 1145.271,846.732 1148.067,862.177 1176.118,862.785 1181.683,876.379 		"/>
		<radialGradient id="SVGID_48_" cx="1270.6483" cy="832.3943" r="55.5677" gradientUnits="userSpaceOnUse">
			<stop  offset="0" style="stop-color:#FFFFFF"/>
			<stop  offset="0.0023" style="stop-color:#FFFEFE"/>
			<stop  offset="0.1599" style="stop-color:#F8D6D5"/>
			<stop  offset="0.3199" style="stop-color:#F3B6B3"/>
			<stop  offset="0.4829" style="stop-color:#EE9C98"/>
			<stop  offset="0.6487" style="stop-color:#EB8A85"/>
			<stop  offset="0.8188" style="stop-color:#EA7F7A"/>
			<stop  offset="1" style="stop-color:#E97B76"/>
		</radialGradient>
		<circle fill="url(#SVGID_48_)" cx="1270.648" cy="832.394" r="55.565"/>
		<radialGradient id="SVGID_49_" cx="944.7731" cy="437.4807" r="138.6941" gradientUnits="userSpaceOnUse">
			<stop  offset="0" style="stop-color:#FFFFFF"/>
			<stop  offset="0.0175" style="stop-color:#FEFBFC"/>
			<stop  offset="0.2178" style="stop-color:#F8D6E2"/>
			<stop  offset="0.4183" style="stop-color:#F3B9CD"/>
			<stop  offset="0.6166" style="stop-color:#EFA5BE"/>
			<stop  offset="0.8117" style="stop-color:#ED98B5"/>
			<stop  offset="1" style="stop-color:#EC94B2"/>
		</radialGradient>
		<polygon fill="url(#SVGID_49_)" points="1080.326,406.308 1075.354,389.756 1044.588,392.567 1036.815,378.383 1055.741,353.964 
			1044.466,340.866 1017.503,355.947 1004.634,346.151 1011.992,316.145 996.364,308.765 977.866,333.51 962.125,329.795 
			956.642,299.391 939.364,299.005 932.53,329.134 916.638,332.143 899.263,306.598 883.322,313.273 889.333,343.577 
			876.039,352.789 849.776,336.519 837.928,349.102 855.746,374.341 847.348,388.164 816.738,383.982 811.032,400.296 
			837.574,416.106 835.525,432.149 805.861,440.78 807.283,458.004 837.962,461.651 842.615,477.141 819.026,497.091 
			827.331,512.248 856.84,503.101 867.392,515.36 853.956,543.18 867.708,553.648 890.946,533.289 905.572,540.196 904.613,571.076 
			921.434,575.045 934.382,546.995 950.552,547.356 962.236,575.956 979.217,572.741 979.638,541.85 994.556,535.602 
			1016.863,556.977 1031.068,547.133 1018.887,518.742 1029.976,506.966 1059.047,517.42 1068.021,502.65 1045.345,481.667 
			1050.685,466.4 1081.496,464.125 1083.686,446.982 1054.436,437.036 1053.104,420.917 		"/>
		<radialGradient id="SVGID_50_" cx="945.1053" cy="437.578" r="61.1978" gradientUnits="userSpaceOnUse">
			<stop  offset="0.0056" style="stop-color:#E6F3E9"/>
			<stop  offset="0.4494" style="stop-color:#C9E6D2"/>
			<stop  offset="1" style="stop-color:#ACDABB"/>
		</radialGradient>
		<circle fill="url(#SVGID_50_)" cx="945.105" cy="437.578" r="61.181"/>
		<radialGradient id="SVGID_51_" cx="1975.3453" cy="703.2759" r="186.3694" gradientUnits="userSpaceOnUse">
			<stop  offset="0" style="stop-color:#FCF3DD"/>
			<stop  offset="0" style="stop-color:#FDEDC1"/>
			<stop  offset="0" style="stop-color:#FFE18A"/>
			<stop  offset="0.5506" style="stop-color:#FFCD03"/>
			<stop  offset="0.668" style="stop-color:#F7C50D"/>
			<stop  offset="1" style="stop-color:#E2B124"/>
		</radialGradient>
		<polygon fill="url(#SVGID_51_)" points="2133.485,602.254 2119.735,583.518 2082.016,600.926 2065.784,586.451 2078.777,546.992 
			2058.595,535.469 2031.217,566.714 2010.501,560.092 2006.321,518.761 1983.198,516.442 1970.895,556.121 1949.277,558.498 
			1928.647,522.44 1906.58,529.727 1911.48,570.979 1892.697,581.943 1859.185,557.394 1841.989,573.026 1863.244,608.719 
			1850.545,626.375 1809.945,617.579 1800.594,638.854 1834.53,662.816 1830.11,684.11 1789.442,692.588 1789.553,715.827 
			1830.3,723.915 1834.924,745.166 1801.22,769.452 1810.773,790.637 1851.288,781.452 1864.155,798.985 1843.243,834.88 
			1860.587,850.347 1893.863,825.478 1912.75,836.262 1908.245,877.559 1930.381,884.635 1950.665,848.381 1972.305,850.55 
			1984.987,890.11 2008.087,887.57 2011.871,846.2 2032.523,839.381 2060.198,870.362 2080.268,858.646 2066.899,819.313 
			2082.991,804.684 2120.875,821.729 2134.445,802.863 2106.233,772.369 2114.984,752.459 2156.526,752.622 2161.249,729.868 
			2123.073,713.485 2122.969,691.737 2160.986,674.989 2156.046,652.281 2114.507,652.842 2105.566,633.016 		"/>
		<radialGradient id="SVGID_52_" cx="1976.2172" cy="702.7302" r="82.2702" gradientUnits="userSpaceOnUse">
			<stop  offset="0" style="stop-color:#C4A873"/>
			<stop  offset="0.5" style="stop-color:#AA863B"/>
			<stop  offset="1" style="stop-color:#8C6F2D"/>
		</radialGradient>
		<circle fill="url(#SVGID_52_)" cx="1976.217" cy="702.73" r="82.268"/>
		<radialGradient id="SVGID_53_" cx="1334.0288" cy="259.322" r="88.764" gradientUnits="userSpaceOnUse">
			<stop  offset="0" style="stop-color:#FCF3DD"/>
			<stop  offset="0" style="stop-color:#FDEDC1"/>
			<stop  offset="0" style="stop-color:#FFE18A"/>
			<stop  offset="0.5506" style="stop-color:#FFCD03"/>
			<stop  offset="0.668" style="stop-color:#F7C50D"/>
			<stop  offset="1" style="stop-color:#E2B124"/>
		</radialGradient>
		<polygon fill="url(#SVGID_53_)" points="1418.498,287.614 1421.381,276.941 1403.713,268.085 1404.276,257.754 1422.802,250.871 
			1421.096,239.948 1401.353,239.044 1397.665,229.377 1411.791,215.554 1405.788,206.269 1387.385,213.473 1380.084,206.142 
			1387.366,187.769 1378.106,181.728 1364.224,195.795 1354.572,192.067 1353.751,172.32 1342.835,170.568 1335.875,189.065 
			1325.541,189.585 1316.76,171.88 1306.074,174.719 1307.239,194.448 1298.01,199.126 1282.787,186.523 1274.18,193.463 
			1283.269,211.012 1276.741,219.04 1257.707,213.718 1252.667,223.559 1268.108,235.894 1265.409,245.883 1245.857,248.763 
			1245.255,259.803 1264.379,264.792 1265.976,275.014 1249.285,285.598 1253.226,295.928 1272.725,292.708 1278.342,301.397 
			1267.4,317.855 1275.201,325.689 1291.704,314.815 1300.37,320.469 1297.068,339.954 1307.381,343.938 1318.035,327.292 
			1328.251,328.932 1333.159,348.076 1344.201,347.521 1347.164,327.98 1357.163,325.324 1369.434,340.816 1379.296,335.818 
			1374.054,316.762 1382.109,310.267 1399.62,319.43 1406.596,310.852 1394.057,295.576 1398.773,286.366 		"/>
		<radialGradient id="SVGID_54_" cx="1334.4591" cy="258.9719" r="39.1465" gradientUnits="userSpaceOnUse">
			<stop  offset="0" style="stop-color:#FFFFFF"/>
			<stop  offset="0.1102" style="stop-color:#CBE2F0"/>
			<stop  offset="0.239" style="stop-color:#96C5E1"/>
			<stop  offset="0.3696" style="stop-color:#68ABD3"/>
			<stop  offset="0.4992" style="stop-color:#4396C8"/>
			<stop  offset="0.6276" style="stop-color:#2586C0"/>
			<stop  offset="0.7546" style="stop-color:#117ABA"/>
			<stop  offset="0.8795" style="stop-color:#0473B6"/>
			<stop  offset="1" style="stop-color:#0071B5"/>
		</radialGradient>
		<circle fill="url(#SVGID_54_)" cx="1334.459" cy="258.972" r="39.138"/>
		<radialGradient id="SVGID_55_" cx="365.4572" cy="1137.9574" r="110.0692" gradientUnits="userSpaceOnUse">
			<stop  offset="0" style="stop-color:#FFFFFF"/>
			<stop  offset="0.1175" style="stop-color:#D6ECEF"/>
			<stop  offset="0.2566" style="stop-color:#ACD9E0"/>
			<stop  offset="0.399" style="stop-color:#8AC9D3"/>
			<stop  offset="0.5431" style="stop-color:#6FBDC9"/>
			<stop  offset="0.6896" style="stop-color:#5CB4C2"/>
			<stop  offset="0.8399" style="stop-color:#51AFBD"/>
			<stop  offset="1" style="stop-color:#4DADBC"/>
		</radialGradient>
		<polygon fill="url(#SVGID_55_)" points="474.554,1154.481 475.712,1140.814 452.182,1133.915 450.582,1121.179 471.674,1108.675 
			467.172,1095.718 442.871,1098.986 436.229,1088.001 450.411,1068 441.029,1057.994 420.158,1070.864 409.622,1063.531 
			414.443,1039.489 401.802,1034.165 387.97,1054.411 375.362,1051.997 369.988,1028.074 356.274,1028.351 351.873,1052.473 
			339.374,1055.396 324.733,1035.726 312.318,1041.558 318.109,1065.384 307.878,1073.138 286.504,1061.124 277.534,1071.501 
			292.515,1090.913 286.323,1102.157 261.909,1099.876 257.936,1113.004 279.517,1124.644 278.434,1137.435 255.203,1145.28 
			256.913,1158.89 281.362,1160.746 285.575,1172.871 267.544,1189.487 274.642,1201.225 297.732,1192.976 306.513,1202.339 
			296.799,1224.853 308.057,1232.689 325.796,1215.761 337.626,1220.744 337.909,1245.262 351.381,1247.841 360.701,1225.162 
			373.535,1224.902 383.766,1247.185 397.122,1244.062 396.412,1219.553 408.031,1214.095 426.441,1230.291 437.372,1222.005 
			426.754,1199.904 435.149,1190.192 458.554,1197.5 465.171,1185.484 446.481,1169.612 450.2,1157.326 		"/>
		<radialGradient id="SVGID_56_" cx="365.6236" cy="1138.1244" r="48.5577" gradientUnits="userSpaceOnUse">
			<stop  offset="0" style="stop-color:#FFFFFF"/>
			<stop  offset="0.1144" style="stop-color:#FAC8E4"/>
			<stop  offset="0.2335" style="stop-color:#F697CC"/>
			<stop  offset="0.3558" style="stop-color:#F26DB7"/>
			<stop  offset="0.4793" style="stop-color:#EF4BA6"/>
			<stop  offset="0.6042" style="stop-color:#ED3099"/>
			<stop  offset="0.7311" style="stop-color:#EB1D8F"/>
			<stop  offset="0.8614" style="stop-color:#EA128A"/>
			<stop  offset="1" style="stop-color:#EA0E88"/>
		</radialGradient>
		<circle fill="url(#SVGID_56_)" cx="365.624" cy="1138.124" r="48.557"/>
		<radialGradient id="SVGID_57_" cx="165.4475" cy="996.817" r="59.0003" gradientUnits="userSpaceOnUse">
			<stop  offset="0.0056" style="stop-color:#E2E5F4"/>
			<stop  offset="0.4494" style="stop-color:#C7CEE9"/>
			<stop  offset="1" style="stop-color:#A8B5DC"/>
		</radialGradient>
		<polygon fill="url(#SVGID_57_)" points="112.26,1023.001 115.889,1029.4 128.391,1025.325 132.957,1030.477 127.411,1042.4 
			133.329,1046.77 143.093,1037.962 149.359,1040.811 149.142,1053.958 156.326,1055.544 161.663,1043.526 168.547,1043.58 
			173.696,1055.679 180.903,1054.206 180.891,1041.056 187.202,1038.305 196.827,1047.264 202.812,1042.987 197.452,1030.979 
			202.098,1025.899 214.536,1030.169 218.263,1023.827 208.483,1015.037 210.661,1008.507 223.76,1007.348 224.586,1000.039 
			212.076,995.987 211.41,989.135 222.904,982.749 220.686,975.736 207.61,977.122 204.214,971.134 212.118,960.625 207.238,955.12 
			195.857,961.705 190.319,957.616 193.265,944.8 186.568,941.756 178.849,952.401 172.127,950.918 169.605,938.012 162.25,937.955 
			159.527,950.819 152.783,952.198 145.23,941.434 138.487,944.373 141.233,957.233 135.632,961.236 124.354,954.474 
			119.39,959.902 127.129,970.533 123.64,976.468 110.587,974.878 108.26,981.856 119.654,988.42 118.881,995.261 106.309,999.117 
			107.021,1006.439 120.1,1007.801 122.176,1014.365 		"/>
		<radialGradient id="SVGID_58_" cx="165.4208" cy="997.2411" r="26.0438" gradientUnits="userSpaceOnUse">
			<stop  offset="0" style="stop-color:#FFFFFF"/>
			<stop  offset="0.1104" style="stop-color:#D9DEEC"/>
			<stop  offset="0.2506" style="stop-color:#AFB9D8"/>
			<stop  offset="0.3942" style="stop-color:#8D9BC7"/>
			<stop  offset="0.5395" style="stop-color:#7284BA"/>
			<stop  offset="0.6871" style="stop-color:#5F73B0"/>
			<stop  offset="0.8386" style="stop-color:#5469AB"/>
			<stop  offset="1" style="stop-color:#5066A9"/>
		</radialGradient>
		<circle fill="url(#SVGID_58_)" cx="165.421" cy="997.241" r="26.04"/>
		<radialGradient id="SVGID_59_" cx="1073.8235" cy="222.0883" r="87.3683" gradientUnits="userSpaceOnUse">
			<stop  offset="0" style="stop-color:#FFFFFF"/>
			<stop  offset="0.1006" style="stop-color:#F5E6DD"/>
			<stop  offset="0.2424" style="stop-color:#E9C8B3"/>
			<stop  offset="0.3875" style="stop-color:#DFAE91"/>
			<stop  offset="0.5344" style="stop-color:#D89B76"/>
			<stop  offset="0.6837" style="stop-color:#D28D63"/>
			<stop  offset="0.8368" style="stop-color:#CF8558"/>
			<stop  offset="1" style="stop-color:#CE8254"/>
		</radialGradient>
		<polygon fill="url(#SVGID_59_)" points="1047.915,306.002 1058.489,308.583 1066.78,290.98 1076.962,291.286 1084.182,309.354 
			1094.892,307.412 1095.306,287.958 1104.732,284.096 1118.677,297.666 1127.671,291.535 1120.137,273.595 1127.178,266.233 
			1145.436,272.958 1151.159,263.699 1136.98,250.374 1140.417,240.785 1159.832,239.502 1161.294,228.716 1142.921,222.31 
			1142.161,212.152 1159.375,203.083 1156.324,192.635 1136.934,194.256 1132.108,185.285 1144.146,169.998 1137.108,161.695 
			1120.054,171.062 1111.996,164.83 1116.776,145.969 1106.969,141.245 1095.2,156.74 1085.304,154.324 1081.998,135.149 
			1071.118,134.822 1066.668,153.764 1056.646,155.582 1045.827,139.41 1035.754,143.537 1039.394,162.651 1030.977,168.389 
			1014.515,158.015 1006.992,165.881 1018.092,181.863 1012.736,190.528 993.478,187.747 989.805,197.993 1006.445,208.078 
			1005.077,218.173 986.353,223.464 987.165,234.319 1006.469,236.764 1009.324,246.542 994.371,258.992 999.528,268.578 
			1018.158,262.961 1024.743,270.732 1016.147,288.188 1024.757,294.847 1039.491,282.138 1048.668,286.559 		"/>
		<radialGradient id="SVGID_60_" cx="1074.0829" cy="222.5994" r="38.5395" gradientUnits="userSpaceOnUse">
			<stop  offset="0" style="stop-color:#FFFFFF"/>
			<stop  offset="0.0023" style="stop-color:#FFFEFE"/>
			<stop  offset="0.1599" style="stop-color:#F8D6D5"/>
			<stop  offset="0.3199" style="stop-color:#F3B6B3"/>
			<stop  offset="0.4829" style="stop-color:#EE9C98"/>
			<stop  offset="0.6487" style="stop-color:#EB8A85"/>
			<stop  offset="0.8188" style="stop-color:#EA7F7A"/>
			<stop  offset="1" style="stop-color:#E97B76"/>
		</radialGradient>
		<circle fill="url(#SVGID_60_)" cx="1074.083" cy="222.599" r="38.532"/>
		<radialGradient id="SVGID_61_" cx="1545.7401" cy="604.0458" r="79.8349" gradientUnits="userSpaceOnUse">
			<stop  offset="0" style="stop-color:#FFFFFF"/>
			<stop  offset="0.1006" style="stop-color:#F5E6DD"/>
			<stop  offset="0.2424" style="stop-color:#E9C8B3"/>
			<stop  offset="0.3875" style="stop-color:#DFAE91"/>
			<stop  offset="0.5344" style="stop-color:#D89B76"/>
			<stop  offset="0.6837" style="stop-color:#D28D63"/>
			<stop  offset="0.8368" style="stop-color:#CF8558"/>
			<stop  offset="1" style="stop-color:#CE8254"/>
		</radialGradient>
		<polygon fill="url(#SVGID_61_)" points="1504.903,534.904 1496.672,540.488 1503.519,556.895 1497.071,563.608 1480.402,557.426 
			1475.154,565.874 1488.082,578.078 1484.922,586.833 1467.179,587.966 1465.821,597.818 1482.596,603.709 1483.27,612.992 
			1467.522,621.244 1470.288,630.797 1488.009,629.355 1492.4,637.562 1481.37,651.505 1487.783,659.107 1503.385,650.583 
			1510.735,656.294 1506.329,673.518 1515.28,677.854 1526.066,663.721 1535.103,665.948 1538.084,683.476 1548.024,683.797 
			1552.129,666.498 1561.291,664.857 1571.144,679.657 1580.355,675.907 1577.069,658.434 1584.772,653.209 1599.792,662.721 
			1606.682,655.549 1596.573,640.923 1601.484,633.017 1619.075,635.598 1622.452,626.243 1607.268,616.993 1608.539,607.773 
			1625.659,602.976 1624.939,593.056 1607.306,590.782 1604.717,581.842 1618.405,570.497 1613.713,561.727 1596.679,566.822 
			1590.678,559.708 1598.568,543.776 1590.715,537.673 1577.226,549.255 1568.849,545.197 1569.578,527.433 1559.921,525.053 
			1552.309,541.12 1543.006,540.82 1536.446,524.295 1526.656,526.048 1526.238,543.822 1517.617,547.332 		"/>
		<radialGradient id="SVGID_62_" cx="1545.382" cy="603.7566" r="35.2102" gradientUnits="userSpaceOnUse">
			<stop  offset="0" style="stop-color:#FFFFFF"/>
			<stop  offset="0.0047" style="stop-color:#FDFDFE"/>
			<stop  offset="0.149" style="stop-color:#C9C8E1"/>
			<stop  offset="0.295" style="stop-color:#9B9AC8"/>
			<stop  offset="0.4399" style="stop-color:#7674B4"/>
			<stop  offset="0.5835" style="stop-color:#5A57A4"/>
			<stop  offset="0.7255" style="stop-color:#454399"/>
			<stop  offset="0.8652" style="stop-color:#393692"/>
			<stop  offset="1" style="stop-color:#353290"/>
		</radialGradient>
		<circle fill="url(#SVGID_62_)" cx="1545.382" cy="603.757" r="35.208"/>
		<radialGradient id="SVGID_63_" cx="2075.7932" cy="1219.5031" r="148.0182" gradientUnits="userSpaceOnUse">
			<stop  offset="0" style="stop-color:#FCF3DD"/>
			<stop  offset="0" style="stop-color:#FDEDC1"/>
			<stop  offset="0" style="stop-color:#FFE18A"/>
			<stop  offset="0.5506" style="stop-color:#FFCD03"/>
			<stop  offset="0.668" style="stop-color:#F7C50D"/>
			<stop  offset="1" style="stop-color:#E2B124"/>
		</radialGradient>
		<polygon fill="url(#SVGID_63_)" points="1977.611,1331.003 1992.145,1342.35 2017.202,1320.934 2032.715,1328.493 
			2031.289,1361.424 2049.182,1365.879 2063.363,1336.123 2080.608,1336.719 2092.7,1367.383 2110.858,1364.175 2111.71,1331.224 
			2127.707,1324.754 2151.226,1347.848 2166.509,1337.532 2153.884,1307.083 2165.867,1294.666 2196.746,1306.198 
			2206.511,1290.557 2182.594,1267.876 2188.49,1251.658 2221.39,1249.634 2223.949,1231.373 2192.875,1220.381 2191.665,1203.167 
			2220.896,1187.937 2215.808,1170.213 2182.948,1172.811 2174.842,1157.577 2195.351,1131.774 2183.494,1117.653 
			2154.532,1133.391 2140.93,1122.771 2149.171,1090.857 2132.595,1082.779 2112.538,1108.937 2095.793,1104.768 2090.341,1072.26 
			2071.913,1071.623 2064.229,1103.677 2047.236,1106.679 2029.033,1079.2 2011.939,1086.113 2017.957,1118.521 2003.654,1128.176 
			1975.848,1110.476 1963.044,1123.744 1981.723,1150.903 1972.584,1165.54 1939.982,1160.68 1933.682,1178.009 1961.792,1195.222 
			1959.397,1212.311 1927.637,1221.132 1928.93,1239.526 1961.611,1243.817 1966.373,1260.403 1940.947,1281.378 1949.61,1297.656 
			1981.211,1288.284 1992.307,1301.499 		"/>
		<radialGradient id="SVGID_64_" cx="2076.0771" cy="1220.4082" r="65.2806" gradientUnits="userSpaceOnUse">
			<stop  offset="0" style="stop-color:#FFFFFF"/>
			<stop  offset="0.1403" style="stop-color:#FDF4CC"/>
			<stop  offset="0.286" style="stop-color:#FCEA9F"/>
			<stop  offset="0.4327" style="stop-color:#FAE279"/>
			<stop  offset="0.5781" style="stop-color:#F9DC5C"/>
			<stop  offset="0.722" style="stop-color:#F9D848"/>
			<stop  offset="0.8635" style="stop-color:#F8D53B"/>
			<stop  offset="1" style="stop-color:#F8D437"/>
		</radialGradient>
		<circle fill="url(#SVGID_64_)" cx="2076.077" cy="1220.408" r="65.275"/>
		<radialGradient id="SVGID_65_" cx="1526.7672" cy="1046.5813" r="162.0279" gradientUnits="userSpaceOnUse">
			<stop  offset="0" style="stop-color:#FFFFFF"/>
			<stop  offset="0.1144" style="stop-color:#FAC8E4"/>
			<stop  offset="0.2335" style="stop-color:#F697CC"/>
			<stop  offset="0.3558" style="stop-color:#F26DB7"/>
			<stop  offset="0.4793" style="stop-color:#EF4BA6"/>
			<stop  offset="0.6042" style="stop-color:#ED3099"/>
			<stop  offset="0.7311" style="stop-color:#EB1D8F"/>
			<stop  offset="0.8614" style="stop-color:#EA128A"/>
			<stop  offset="1" style="stop-color:#EA0E88"/>
		</radialGradient>
		<polygon fill="url(#SVGID_65_)" points="1527.897,884.548 1507.744,885.617 1502.433,921.299 1484.193,926.199 1461.718,897.979 
			1443.741,907.152 1453.403,941.91 1438.733,953.805 1406.723,937.167 1394.032,952.858 1416.995,980.682 1408.431,997.515 
			1372.421,995.335 1367.21,1014.832 1399.505,1030.91 1398.528,1049.771 1364.745,1062.426 1367.914,1082.357 1403.956,1083.909 
			1410.735,1101.537 1385.02,1126.839 1396.021,1143.757 1429.579,1130.516 1442.942,1143.862 1429.741,1177.436 1446.673,1188.417 
			1471.944,1162.671 1489.58,1169.429 1491.176,1205.469 1511.111,1208.614 1523.725,1174.816 1542.585,1173.816 1558.702,1206.091 
			1578.192,1200.856 1575.968,1164.849 1592.791,1156.264 1620.642,1179.194 1636.318,1166.484 1619.641,1134.494 
			1631.518,1119.809 1666.288,1129.429 1675.439,1111.442 1647.193,1089.001 1652.07,1070.755 1687.746,1065.4 1688.79,1045.246 
			1653.858,1036.234 1650.892,1017.582 1681.306,998.179 1674.062,979.343 1638.485,985.318 1628.189,969.485 1648.082,939.389 
			1633.803,925.128 1603.731,945.057 1587.886,934.781 1593.818,899.196 1574.973,891.975 1555.607,922.412 1536.951,919.469 		"/>
		<radialGradient id="SVGID_66_" cx="1526.0149" cy="1046.6038" r="71.4478" gradientUnits="userSpaceOnUse">
			<stop  offset="0" style="stop-color:#FFFFFF"/>
			<stop  offset="0.1104" style="stop-color:#D9DEEC"/>
			<stop  offset="0.2506" style="stop-color:#AFB9D8"/>
			<stop  offset="0.3942" style="stop-color:#8D9BC7"/>
			<stop  offset="0.5395" style="stop-color:#7284BA"/>
			<stop  offset="0.6871" style="stop-color:#5F73B0"/>
			<stop  offset="0.8386" style="stop-color:#5469AB"/>
			<stop  offset="1" style="stop-color:#5066A9"/>
		</radialGradient>
		<circle fill="url(#SVGID_66_)" cx="1526.015" cy="1046.604" r="71.442"/>
		<radialGradient id="SVGID_67_" cx="1266.8943" cy="520.6387" r="148.7712" gradientUnits="userSpaceOnUse">
			<stop  offset="0" style="stop-color:#77C697"/>
			<stop  offset="0.2573" style="stop-color:#38BC80"/>
			<stop  offset="0.5" style="stop-color:#00B36C"/>
			<stop  offset="0.5432" style="stop-color:#00B269"/>
			<stop  offset="1" style="stop-color:#00A652"/>
		</radialGradient>
		<polygon fill="url(#SVGID_67_)" points="1400.796,454.044 1391.581,437.942 1360.092,448.345 1348.524,435.398 1362.391,405.273 
			1347.424,394.312 1322.888,416.623 1307.054,409.501 1307.47,376.34 1289.338,372.414 1275.998,402.776 1258.636,402.709 
			1245.528,372.247 1227.367,376.035 1227.53,409.198 1211.642,416.199 1187.277,393.701 1172.227,404.548 1185.864,434.778 
			1174.198,447.636 1142.788,436.994 1133.451,453.025 1158.205,475.094 1152.777,491.585 1119.754,494.639 1117.745,513.081 
			1149.335,523.174 1151.084,540.448 1122.158,556.668 1127.824,574.334 1160.788,570.706 1169.411,585.775 1149.584,612.358 
			1161.945,626.192 1190.583,609.47 1204.59,619.728 1197.29,652.078 1214.209,659.688 1233.57,632.763 1250.538,636.438 
			1257.026,668.96 1275.578,669.031 1282.314,636.559 1299.31,633.014 1318.465,660.085 1335.442,652.604 1328.388,620.2 
			1342.472,610.049 1370.983,626.989 1383.449,613.249 1363.825,586.516 1372.563,571.513 1405.498,575.393 1411.298,557.771 
			1382.497,541.33 1384.378,524.071 1416.044,514.218 1414.175,495.761 1381.177,492.456 1375.875,475.924 		"/>
		<radialGradient id="SVGID_68_" cx="1266.985" cy="519.5432" r="65.6821" gradientUnits="userSpaceOnUse">
			<stop  offset="0.0056" style="stop-color:#FFFDE3"/>
			<stop  offset="0.4494" style="stop-color:#FFFBC8"/>
			<stop  offset="1" style="stop-color:#FFF78F"/>
		</radialGradient>
		<circle fill="url(#SVGID_68_)" cx="1266.985" cy="519.543" r="65.674"/>
		<radialGradient id="SVGID_69_" cx="1212.7888" cy="111.0767" r="78.7092" gradientUnits="userSpaceOnUse">
			<stop  offset="0" style="stop-color:#E1E4EF"/>
			<stop  offset="0.5" style="stop-color:#CBD1E4"/>
			<stop  offset="1" style="stop-color:#B4BED8"/>
		</radialGradient>
		<polygon fill="url(#SVGID_69_)" points="1213.056,189.829 1222.841,189.213 1225.249,171.854 1234.086,169.386 1245.14,182.986 
			1253.828,178.443 1248.967,161.605 1256.036,155.756 1271.667,163.684 1277.756,156 1266.466,142.595 1270.546,134.376 
			1288.049,135.262 1290.486,125.766 1274.721,118.111 1275.104,108.944 1291.455,102.634 1289.819,92.967 1272.303,92.387 
			1268.925,83.856 1281.295,71.441 1275.869,63.275 1259.631,69.87 1253.075,63.45 1259.326,47.077 1251.048,41.825 
			1238.896,54.453 1230.296,51.256 1229.347,33.756 1219.648,32.324 1213.683,48.804 1204.526,49.38 1196.542,33.779 
			1187.099,36.416 1188.353,53.897 1180.222,58.148 1166.582,47.144 1159.028,53.394 1167.283,68.853 1161.585,76.044 
			1144.648,71.539 1140.289,80.321 1154.119,91.086 1151.838,99.973 1134.533,102.746 1134.123,112.542 1151.136,116.751 
			1152.666,125.798 1137.985,135.369 1141.595,144.485 1158.849,141.411 1163.927,149.052 1154.409,163.768 1161.414,170.627 
			1175.926,160.801 1183.673,165.717 1180.963,183.032 1190.152,186.449 1199.413,171.569 1208.49,172.909 		"/>
		<radialGradient id="SVGID_70_" cx="1213.1891" cy="111.0971" r="34.7099" gradientUnits="userSpaceOnUse">
			<stop  offset="0" style="stop-color:#FFF2DB"/>
			<stop  offset="0.309" style="stop-color:#D7B189"/>
			<stop  offset="0.7508" style="stop-color:#92562D"/>
			<stop  offset="0.7809" style="stop-color:#8D5027"/>
			<stop  offset="1" style="stop-color:#541513"/>
		</radialGradient>
		<circle fill="url(#SVGID_70_)" cx="1213.189" cy="111.097" r="34.707"/>
		<radialGradient id="SVGID_71_" cx="552.2313" cy="573.4747" r="155.3251" gradientUnits="userSpaceOnUse">
			<stop  offset="0" style="stop-color:#F7977A"/>
			<stop  offset="0.0711" style="stop-color:#F68D71"/>
			<stop  offset="0.5" style="stop-color:#F1563C"/>
			<stop  offset="0.745" style="stop-color:#DE3B34"/>
			<stop  offset="1" style="stop-color:#CE242C"/>
		</radialGradient>
		<polygon fill="url(#SVGID_71_)" points="527.235,419.121 508.358,423.421 509.162,458.02 492.719,465.628 466.866,442.62 
			451.37,454.226 466.177,485.507 454.25,499.146 421.274,488.642 411.838,505.547 438.088,528.101 432.739,545.412 
			398.342,549.229 396.598,568.51 429.752,578.438 431.907,596.427 402.036,613.905 408.285,632.229 442.611,627.813 
			451.896,643.371 431.717,671.487 444.879,685.685 474.44,667.689 489.251,678.125 482.252,712.018 500.051,719.635 
			519.737,691.172 537.512,694.682 544.904,728.491 564.262,728.21 570.669,694.2 588.335,690.177 608.839,718.057 626.41,709.927 
			618.43,676.251 632.932,665.39 663.003,682.52 675.748,667.946 654.761,640.428 663.592,624.607 698.031,628.025 703.745,609.528 
			673.38,592.924 675.013,574.88 707.864,563.995 705.562,544.772 671.068,541.954 665.22,524.806 690.804,501.5 680.882,484.876 
			648.225,496.332 635.907,483.044 649.801,451.347 633.974,440.196 608.8,463.944 592.143,456.816 591.943,422.208 
			572.949,418.458 559.61,450.393 541.494,450.655 		"/>
		<radialGradient id="SVGID_72_" cx="551.9072" cy="572.6243" r="68.5531" gradientUnits="userSpaceOnUse">
			<stop  offset="0" style="stop-color:#FFFBCC"/>
			<stop  offset="0.1146" style="stop-color:#FBF2BB"/>
			<stop  offset="0.3413" style="stop-color:#F0D98E"/>
			<stop  offset="0.3708" style="stop-color:#EED688"/>
			<stop  offset="0.6854" style="stop-color:#EBBB10"/>
			<stop  offset="1" style="stop-color:#C3922E"/>
		</radialGradient>
		<circle fill="url(#SVGID_72_)" cx="551.907" cy="572.624" r="68.536"/>
	</g>
</g>
</svg>
