<?xml version="1.0" standalone="no"?>
<!DOCTYPE svg PUBLIC "-//W3C//DTD SVG 20010904//EN"
 "http://www.w3.org/TR/2001/REC-SVG-20010904/DTD/svg10.dtd">
<svg version="1.0" xmlns="http://www.w3.org/2000/svg"
 width="360.000000pt" height="360.000000pt" viewBox="0 0 360.000000 360.000000"
 preserveAspectRatio="xMidYMid meet">
<metadata>
Created by potrace 1.14, written by Peter Selinger 2001-2017
</metadata>
<g transform="translate(0.000000,360.000000) scale(0.100000,-0.100000)"
fill="#000000" stroke="none">
<path d="M1655 3594 c-16 -2 -66 -9 -110 -15 -344 -45 -702 -214 -964 -456
-296 -272 -490 -636 -558 -1043 -25 -153 -23 -436 6 -592 100 -561 471 -1055
976 -1303 128 -63 342 -131 488 -157 147 -25 424 -30 557 -9 386 60 708 214
984 472 273 255 470 620 537 997 29 157 31 437 5 597 -78 476 -342 902 -733
1181 -104 74 -304 180 -423 222 -102 37 -225 69 -340 88 -84 15 -366 26 -425
18z m439 -980 c25 -10 56 -68 67 -129 24 -130 -27 -336 -152 -618 -44 -98 -85
-202 -90 -229 -14 -65 -7 -148 15 -163 41 -30 107 21 126 98 60 236 240 406
406 383 64 -8 119 -40 134 -76 11 -27 9 -52 -14 -183 -15 -84 -26 -170 -24
-191 7 -82 63 -70 168 36 48 48 76 68 93 68 32 0 57 -24 57 -54 0 -55 -124
-192 -213 -235 -89 -43 -178 -22 -207 49 -15 36 -21 37 -46 9 -26 -29 -91 -65
-141 -78 -55 -15 -117 -1 -153 34 l-28 26 -61 -30 c-67 -34 -125 -40 -170 -16
-29 14 -75 63 -83 87 -3 8 -18 2 -45 -19 -72 -57 -134 -83 -202 -83 -53 0 -64
4 -96 31 l-35 31 -41 -28 c-32 -22 -55 -29 -105 -32 -63 -4 -65 -4 -99 33 -19
20 -35 43 -35 51 0 20 -14 17 -36 -7 -52 -57 -160 -95 -229 -79 -51 11 -109
72 -126 131 -42 152 95 418 256 499 67 33 171 35 232 2 64 -34 68 -59 38 -232
-29 -169 -31 -222 -10 -240 38 -32 86 26 120 145 25 87 51 132 111 195 56 59
132 103 197 115 36 7 37 9 37 49 0 125 68 380 132 493 35 63 105 138 141 153
26 10 88 13 111 4z"/>
<path d="M1966 2412 c-43 -84 -87 -352 -86 -521 l1 -66 29 68 c79 183 133 392
128 499 -3 56 -5 63 -25 66 -18 3 -27 -7 -47 -46z"/>
<path d="M1058 1810 c-76 -41 -147 -162 -156 -267 -12 -148 87 -151 149 -5 20
46 59 223 59 266 0 31 -4 31 -52 6z"/>
<path d="M2395 1811 c-51 -23 -90 -68 -129 -151 -53 -114 -45 -230 17 -230 48
0 98 80 130 210 16 65 33 190 26 190 -2 0 -22 -9 -44 -19z"/>
<path d="M1639 1763 c-97 -90 -147 -258 -90 -304 35 -29 69 -24 106 15 60 63
68 94 60 222 -4 63 -12 114 -17 114 -5 0 -31 -21 -59 -47z"/>
</g>
</svg>
